<svg width="15" height="14" viewBox="0 0 15 14" fill="none" xmlns="http://www.w3.org/2000/svg">
<path d="M7.5 9.63149V7.06006M7.5 7.06006V4.48863M7.5 7.06006H4.92857M7.5 7.06006H10.0714M1.5 10.3174V3.80308C1.5 2.84299 1.5 2.36259 1.68685 1.99588C1.8512 1.67332 2.11326 1.41126 2.43583 1.2469C2.80253 1.06006 3.28293 1.06006 4.24302 1.06006H10.7573C11.7174 1.06006 12.1972 1.06006 12.5639 1.2469C12.8865 1.41126 13.149 1.67332 13.3133 1.99588C13.5002 2.36259 13.5002 2.84265 13.5002 3.80273L13.5002 10.317C13.5002 11.2771 13.5002 11.7572 13.3133 12.1239C13.149 12.4464 12.8865 12.709 12.5639 12.8734C12.1976 13.0601 11.7184 13.0601 10.7602 13.0601H4.24021C3.28199 13.0601 2.80217 13.0601 2.43583 12.8734C2.11326 12.709 1.8512 12.4465 1.68685 12.124C1.5 11.7573 1.5 11.2775 1.5 10.3174Z" stroke-width="1.25" stroke-linecap="round" stroke-linejoin="round"/>
</svg>
