<svg width="13" height="15" viewBox="0 0 13 15" fill="none" xmlns="http://www.w3.org/2000/svg">
<path d="M7.66667 6.22648V10.8931M5 6.22648V10.8931M2.33333 3.55981V11.4265C2.33333 12.1732 2.33333 12.5463 2.47866 12.8315C2.60649 13.0824 2.81032 13.2868 3.0612 13.4146C3.34613 13.5598 3.71933 13.5598 4.46461 13.5598H8.20206C8.94734 13.5598 9.31999 13.5598 9.60493 13.4146C9.85581 13.2868 10.0603 13.0824 10.1882 12.8315C10.3333 12.5466 10.3333 12.1738 10.3333 11.4285V3.55981M2.33333 3.55981H3.66667M2.33333 3.55981H1M3.66667 3.55981H9M3.66667 3.55981C3.66667 2.93856 3.66667 2.62808 3.76816 2.38306C3.90349 2.05635 4.16288 1.79663 4.48958 1.66131C4.73461 1.55981 5.04541 1.55981 5.66667 1.55981H7C7.62126 1.55981 7.93188 1.55981 8.17691 1.66131C8.50362 1.79663 8.76311 2.05635 8.89844 2.38306C8.99993 2.62808 9 2.93856 9 3.55981M9 3.55981H10.3333M10.3333 3.55981H11.6667" stroke-width="1.25" stroke-linecap="round" stroke-linejoin="round"/>
</svg>
