<svg width="16" height="5" viewBox="0 0 16 5" fill="none" xmlns="http://www.w3.org/2000/svg">
<path d="M13 2.05981C13 2.6121 13.4477 3.05981 14 3.05981C14.5523 3.05981 15 2.6121 15 2.05981C15 1.50753 14.5523 1.05981 14 1.05981C13.4477 1.05981 13 1.50753 13 2.05981Z" stroke-width="2" stroke-linecap="round" stroke-linejoin="round"/>
<path d="M7 2.05981C7 2.6121 7.44772 3.05981 8 3.05981C8.55228 3.05981 9 2.6121 9 2.05981C9 1.50753 8.55228 1.05981 8 1.05981C7.44772 1.05981 7 1.50753 7 2.05981Z" stroke-width="2" stroke-linecap="round" stroke-linejoin="round"/>
<path d="M1 2.05981C1 2.6121 1.44772 3.05981 2 3.05981C2.55228 3.05981 3 2.6121 3 2.05981C3 1.50753 2.55228 1.05981 2 1.05981C1.44772 1.05981 1 1.50753 1 2.05981Z" stroke-width="2" stroke-linecap="round" stroke-linejoin="round"/>
</svg>
