<svg width="11" height="16" viewBox="0 0 11 16" fill="none" xmlns="http://www.w3.org/2000/svg">
<path d="M3.15462 15H7.82129M5.48796 1C2.91063 1 0.821289 3.08934 0.821289 5.66667C0.821289 6.61128 1.10194 7.49034 1.58442 8.22501C2.32635 9.35475 2.69698 9.91926 2.74514 10.0036C3.17351 10.7541 3.09463 10.4894 3.14855 11.3519C3.15461 11.4488 3.15462 11.5956 3.15462 11.8889C3.15462 12.3184 3.50285 12.6667 3.9324 12.6667L7.04351 12.6667C7.47307 12.6667 7.82129 12.3184 7.82129 11.8889C7.82129 11.5956 7.82129 11.4488 7.82735 11.3519C7.88126 10.4894 7.80193 10.7541 8.23031 10.0036C8.27846 9.91926 8.64973 9.35475 9.39166 8.22501C9.87413 7.49034 10.1548 6.61128 10.1548 5.66667C10.1548 3.08934 8.06528 1 5.48796 1Z" stroke="var(--white)" stroke-width="1.25" stroke-linecap="round" stroke-linejoin="round"/>
</svg>
