<svg width="18" height="23" viewBox="0 0 18 23" fill="none" xmlns="http://www.w3.org/2000/svg">
<path d="M9.88889 1.50097C9.78278 1.5 9.66364 1.5 9.52746 1.5H4.55577C3.31121 1.5 2.68847 1.5 2.21311 1.74221C1.79497 1.95526 1.45526 2.29497 1.24221 2.71311C1 3.18847 1 3.81121 1 5.05577V17.9447C1 19.1892 1 19.8112 1.24221 20.2865C1.45526 20.7047 1.79497 21.045 2.21311 21.258C2.68801 21.5 3.31 21.5 4.55216 21.5L13.0034 21.5C14.2456 21.5 14.8667 21.5 15.3415 21.258C15.7597 21.045 16.1005 20.7047 16.3136 20.2865C16.5556 19.8116 16.5556 19.1905 16.5556 17.9484V8.52854C16.5556 8.39218 16.5555 8.2729 16.5545 8.16667M9.88889 1.50097C10.2063 1.50385 10.407 1.51538 10.5987 1.5614C10.8255 1.61584 11.0421 1.70585 11.2409 1.82769C11.4651 1.96507 11.6576 2.15758 12.0417 2.54167L15.5144 6.01443C15.8988 6.39876 16.0899 6.5904 16.2273 6.81466C16.3491 7.01349 16.4393 7.23028 16.4937 7.45703C16.5397 7.64862 16.5515 7.84945 16.5545 8.16667M9.88889 1.50097V4.61111C9.88889 5.85567 9.88889 6.47752 10.1311 6.95288C10.3441 7.37102 10.6839 7.71164 11.102 7.9247C11.5769 8.16667 12.1989 8.16667 13.441 8.16667H16.5545M16.5545 8.16667H16.5558" stroke-width="2" stroke-linecap="round" stroke-linejoin="round"/>
</svg>
