<svg width="11" height="12" viewBox="0 0 11 12" fill="none" xmlns="http://www.w3.org/2000/svg">
<path d="M3.75152 4.33333H2.62359C2.00131 4.33333 1.68994 4.33333 1.45226 4.45444C1.24319 4.56096 1.07333 4.73082 0.966807 4.93989C0.845703 5.17757 0.845703 5.48894 0.845703 6.11122V9.22233C0.845703 9.84461 0.845703 10.1556 0.966807 10.3933C1.07333 10.6023 1.24319 10.7725 1.45226 10.879C1.6897 11 2.00071 11 2.62178 11H7.95853C8.5796 11 8.89014 11 9.12759 10.879C9.33666 10.7725 9.50708 10.6023 9.61361 10.3933C9.73459 10.1558 9.73459 9.84527 9.73459 9.22421V6.10939C9.73459 5.48833 9.73459 5.17733 9.61361 4.93989C9.50708 4.73082 9.33666 4.56096 9.12759 4.45444C8.88991 4.33333 8.5792 4.33333 7.95692 4.33333H6.82844M3.75152 4.33333H6.82844M3.75152 4.33333C3.68071 4.33333 3.62348 4.27593 3.62348 4.20513V2.66667C3.62348 1.74619 4.36967 1 5.29015 1C6.21062 1 6.95681 1.74619 6.95681 2.66667V4.20513C6.95681 4.27593 6.89925 4.33333 6.82844 4.33333" stroke="var(--white)" stroke-linecap="round" stroke-linejoin="round"/>
</svg>
