<svg width="13" height="14" viewBox="0 0 13 14" fill="none" xmlns="http://www.w3.org/2000/svg">
<path d="M6.5 9.25L4.25 7M4.25 7L6.5 4.75M4.25 7H12.5M8.75 3.43644V3.40015C8.75 2.56007 8.75 2.13972 8.58651 1.81885C8.4427 1.5366 8.2134 1.3073 7.93115 1.16349C7.61028 1 7.18993 1 6.34985 1H2.89985C2.05977 1 1.64032 1 1.31945 1.16349C1.03721 1.3073 0.80714 1.5366 0.66333 1.81885C0.5 2.1394 0.5 2.55925 0.5 3.39768V10.6027C0.5 11.4411 0.5 11.8604 0.66333 12.1809C0.80714 12.4632 1.03721 12.6929 1.31945 12.8367C1.64001 13 2.05925 13 2.89768 13H6.35232C7.19075 13 7.6106 13 7.93115 12.8367C8.2134 12.6929 8.4427 12.4629 8.58651 12.1807C8.75 11.8598 8.75 11.4401 8.75 10.6V10.5625" stroke="var(--white)" stroke-linecap="round" stroke-linejoin="round"/>
</svg>
