<svg width="148" height="24" viewBox="0 0 148 24" fill="none" xmlns="http://www.w3.org/2000/svg">
<path d="M23.715 11.8582C23.715 14.2034 23.0196 16.4959 21.7167 18.4459C20.4137 20.3958 18.5619 21.9157 16.3952 22.8131C14.2285 23.7106 11.8444 23.9454 9.54423 23.4879C7.2441 23.0304 5.13129 21.901 3.47299 20.2427C1.81469 18.5844 0.685369 16.4716 0.227844 14.1715C-0.22968 11.8714 0.00513748 9.48722 0.902604 7.32054C1.80007 5.15386 3.31988 3.30198 5.26983 1.99906C7.21979 0.696136 9.51232 0.000705226 11.8575 0.000704886L11.8575 5.92946C10.6849 5.92946 9.53865 6.27717 8.56367 6.92863C7.58869 7.58009 6.82879 8.50604 6.38006 9.58938C5.93132 10.6727 5.81392 11.8648 6.04268 13.0149C6.27144 14.1649 6.8361 15.2213 7.66525 16.0505C8.4944 16.8796 9.5508 17.4443 10.7009 17.673C11.8509 17.9018 13.043 17.7844 14.1263 17.3357C15.2097 16.8869 16.1356 16.127 16.7871 15.152C17.4385 14.1771 17.7863 13.0308 17.7863 11.8582H23.715Z" fill="var(--white)"/>
<path d="M23.7055 23.715C26.0507 23.715 28.3432 23.0196 30.2932 21.7167C32.2431 20.4137 33.7629 18.5619 34.6604 16.3952C35.5578 14.2285 35.7927 11.8444 35.3351 9.54423C34.8776 7.2441 33.7483 5.13129 32.09 3.47299C30.4317 1.81469 28.3189 0.685369 26.0188 0.227844C23.7186 -0.22968 21.3345 0.00513748 19.1678 0.902604C17.0011 1.80007 15.1492 3.31988 13.8463 5.26983C12.5434 7.21979 11.848 9.51232 11.848 11.8575L17.7767 11.8575C17.7767 10.6849 18.1244 9.53865 18.7759 8.56367C19.4274 7.58869 20.3533 6.82879 21.4366 6.38006C22.52 5.93132 23.7121 5.81392 24.8621 6.04268C26.0122 6.27144 27.0686 6.8361 27.8977 7.66525C28.7269 8.4944 29.2915 9.5508 29.5203 10.7009C29.7491 11.8509 29.6317 13.043 29.1829 14.1263C28.7342 15.2097 27.9743 16.1356 26.9993 16.7871C26.0243 17.4385 24.8781 17.7863 23.7055 17.7863V23.715Z" fill="var(--primary)"/>
<path d="M44.0755 11.4054C44.0755 10.689 44.2023 9.98907 44.4558 9.30569C44.7203 8.61129 45.1006 7.98303 45.5966 7.4209C46.0926 6.84774 46.6988 6.39583 47.4153 6.06516C48.1317 5.72347 48.9473 5.55263 49.8622 5.55263C50.9424 5.55263 51.8737 5.78961 52.6563 6.26356C53.4499 6.73752 54.0396 7.35476 54.4254 8.11529L52.6728 9.32223C52.4744 8.88134 52.2154 8.53414 51.8958 8.28063C51.5761 8.0161 51.2344 7.83423 50.8707 7.73503C50.507 7.62481 50.1488 7.5697 49.7961 7.5697C49.2229 7.5697 48.7214 7.68543 48.2915 7.91689C47.8727 8.14836 47.52 8.45147 47.2334 8.82623C46.9468 9.20098 46.7319 9.61983 46.5886 10.0828C46.4563 10.5457 46.3902 11.0086 46.3902 11.4716C46.3902 11.9896 46.4729 12.4911 46.6382 12.9761C46.8035 13.45 47.035 13.8744 47.3326 14.2492C47.6412 14.6129 48.0049 14.905 48.4238 15.1254C48.8537 15.3348 49.3221 15.4396 49.8291 15.4396C50.1929 15.4396 50.5621 15.3789 50.9368 15.2577C51.3116 15.1364 51.6588 14.9436 51.9784 14.679C52.2981 14.4145 52.5461 14.0728 52.7224 13.654L54.5907 14.7286C54.3592 15.3128 53.979 15.8088 53.4499 16.2166C52.9319 16.6244 52.3477 16.9331 51.6974 17.1425C51.0471 17.3519 50.4023 17.4566 49.763 17.4566C48.9253 17.4566 48.1593 17.2858 47.4649 16.9441C46.7705 16.5914 46.1697 16.1284 45.6627 15.5553C45.1667 14.9711 44.7754 14.3208 44.4889 13.6044C44.2133 12.8769 44.0755 12.1439 44.0755 11.4054ZM61.8118 17.4401C60.952 17.4401 60.1695 17.2748 59.464 16.9441C58.7696 16.6134 58.1689 16.167 57.6619 15.6049C57.1659 15.0317 56.7801 14.3924 56.5046 13.687C56.229 12.9706 56.0912 12.2376 56.0912 11.4881C56.0912 10.7055 56.2345 9.96152 56.5211 9.25609C56.8187 8.53965 57.221 7.90587 57.728 7.35476C58.2461 6.79263 58.8523 6.35174 59.5467 6.0321C60.2521 5.70143 61.0237 5.5361 61.8614 5.5361C62.7101 5.5361 63.4816 5.70694 64.176 6.04863C64.8815 6.39032 65.4822 6.84774 65.9782 7.4209C66.4742 7.99405 66.8599 8.63334 67.1355 9.33876C67.4111 10.0442 67.5488 10.7716 67.5488 11.5212C67.5488 12.2927 67.4055 13.0367 67.119 13.7532C66.8324 14.4586 66.4301 15.0924 65.912 15.6545C65.405 16.2056 64.7988 16.641 64.0934 16.9606C63.399 17.2803 62.6384 17.4401 61.8118 17.4401ZM58.4059 11.4881C58.4059 11.9951 58.4831 12.4856 58.6374 12.9596C58.7917 13.4335 59.0121 13.8579 59.2987 14.2326C59.5963 14.5964 59.9545 14.8884 60.3734 15.1089C60.8032 15.3183 61.2882 15.423 61.8283 15.423C62.3794 15.423 62.8699 15.3128 63.2998 15.0924C63.7296 14.8609 64.0879 14.5578 64.3744 14.183C64.661 13.7972 64.8759 13.3729 65.0192 12.91C65.1735 12.436 65.2507 11.962 65.2507 11.4881C65.2507 10.9811 65.168 10.4961 65.0027 10.0332C64.8484 9.5592 64.6224 9.14036 64.3248 8.77663C64.0383 8.40187 63.68 8.10978 63.2502 7.90036C62.8313 7.67992 62.3574 7.5697 61.8283 7.5697C61.2662 7.5697 60.7702 7.68543 60.3403 7.91689C59.9215 8.13734 59.5688 8.43494 59.2822 8.80969C58.9956 9.18445 58.7752 9.60329 58.6208 10.0662C58.4776 10.5292 58.4059 11.0031 58.4059 11.4881ZM72.4073 9.81823V17.3574H70.1257V5.61876H71.9444L78.0121 13.3564V5.6353H80.2937V17.3574H78.3924L72.4073 9.81823ZM90.5559 8.69396C90.4787 8.61681 90.3354 8.51209 90.126 8.37983C89.9276 8.24756 89.6796 8.12081 89.382 7.99956C89.0954 7.87832 88.7813 7.77361 88.4396 7.68543C88.0979 7.58623 87.7507 7.53663 87.398 7.53663C86.7807 7.53663 86.3123 7.65236 85.9927 7.88383C85.684 8.11529 85.5297 8.44045 85.5297 8.85929C85.5297 9.17894 85.6289 9.43245 85.8273 9.61983C86.0257 9.8072 86.3233 9.96703 86.7201 10.0993C87.1169 10.2316 87.6129 10.3748 88.2081 10.5292C88.9797 10.7165 89.6465 10.948 90.2087 11.2236C90.7818 11.4881 91.2172 11.8408 91.5148 12.2817C91.8234 12.7116 91.9777 13.2847 91.9777 14.0012C91.9777 14.6294 91.862 15.1695 91.6305 15.6214C91.3991 16.0623 91.0794 16.4205 90.6716 16.6961C90.2638 16.9716 89.8008 17.1756 89.2828 17.3078C88.7647 17.4291 88.2136 17.4897 87.6295 17.4897C87.0453 17.4897 86.4611 17.4291 85.8769 17.3078C85.2927 17.1866 84.7306 17.0157 84.1905 16.7953C83.6504 16.5638 83.1544 16.2883 82.7025 15.9686L83.7111 14.0012C83.8103 14.1004 83.9866 14.2326 84.2401 14.398C84.4936 14.5523 84.8023 14.7121 85.166 14.8774C85.5297 15.0317 85.9265 15.164 86.3564 15.2742C86.7863 15.3844 87.2216 15.4396 87.6625 15.4396C88.2798 15.4396 88.7482 15.3348 89.0679 15.1254C89.3875 14.916 89.5473 14.6184 89.5473 14.2326C89.5473 13.8799 89.4206 13.6044 89.1671 13.406C88.9135 13.2076 88.5608 13.0367 88.1089 12.8934C87.657 12.7391 87.1224 12.5738 86.5052 12.3974C85.7667 12.188 85.1495 11.9565 84.6535 11.703C84.1575 11.4385 83.7882 11.1078 83.5457 10.711C83.3032 10.3142 83.182 9.81823 83.182 9.22303C83.182 8.41841 83.3694 7.74605 83.7441 7.20596C84.1299 6.65485 84.6479 6.24152 85.2983 5.96596C85.9486 5.67939 86.6705 5.5361 87.4641 5.5361C88.0152 5.5361 88.5333 5.59672 89.0183 5.71796C89.5143 5.83921 89.9772 5.99903 90.4071 6.19743C90.8369 6.39583 91.2227 6.61076 91.5644 6.84223L90.5559 8.69396ZM99.505 17.4401C98.5681 17.4401 97.769 17.2858 97.1077 16.9772C96.4574 16.6575 95.9283 16.2221 95.5205 15.671C95.1237 15.1199 94.8316 14.4972 94.6442 13.8028C94.4569 13.0973 94.3632 12.3644 94.3632 11.6038V5.61876H96.6448V11.6038C96.6448 12.0888 96.6889 12.5628 96.777 13.0257C96.8762 13.4776 97.0361 13.8854 97.2565 14.2492C97.4769 14.6129 97.769 14.8995 98.1328 15.1089C98.4965 15.3183 98.9484 15.423 99.4885 15.423C100.04 15.423 100.497 15.3183 100.861 15.1089C101.236 14.8884 101.528 14.5964 101.737 14.2326C101.957 13.8689 102.117 13.4611 102.216 13.0092C102.316 12.5462 102.365 12.0778 102.365 11.6038V5.61876H104.63V11.6038C104.63 12.4084 104.531 13.1635 104.333 13.8689C104.145 14.5743 103.842 15.1971 103.423 15.7372C103.016 16.2662 102.487 16.6851 101.836 16.9937C101.186 17.2913 100.409 17.4401 99.505 17.4401ZM107.755 17.3574V5.61876H110.037V15.3569H116.022V17.3574H107.755ZM125.321 7.61929H121.568V17.3574H119.303V7.61929H115.55V5.61876H125.321V7.61929ZM134.593 5.61876H136.908L141.223 17.3574H138.875L137.784 14.431H133.684L132.609 17.3574H130.262L134.593 5.61876ZM137.371 12.8273L135.751 7.98303L134.064 12.8273H137.371ZM143.337 17.3574V5.61876H145.619V17.3574H143.337Z" fill="var(--white)"/>
</svg>
