<svg width="32" height="32" viewBox="0 0 32 32" fill="none" xmlns="http://www.w3.org/2000/svg">
<circle cx="16" cy="16" r="16" fill="var(--primary)"/>
<path d="M19.3369 16.0004C19.3369 17.3193 18.9458 18.6086 18.2131 19.7052C17.4803 20.8018 16.4389 21.6565 15.2204 22.1612C14.0019 22.666 12.6611 22.798 11.3675 22.5407C10.074 22.2834 8.88575 21.6483 7.95315 20.7157C7.02055 19.7831 6.38544 18.5949 6.12814 17.3013C5.87083 16.0078 6.00289 14.667 6.50761 13.4485C7.01233 12.23 7.86704 11.1885 8.96366 10.4558C10.0603 9.72304 11.3496 9.33194 12.6685 9.33194L12.6685 12.6662C12.009 12.6662 11.3644 12.8617 10.8161 13.2281C10.2677 13.5945 9.84039 14.1152 9.58803 14.7244C9.33567 15.3337 9.26964 16.0041 9.3983 16.6509C9.52695 17.2976 9.8445 17.8917 10.3108 18.358C10.7771 18.8243 11.3712 19.1419 12.018 19.2706C12.6648 19.3992 13.3352 19.3332 13.9444 19.0808C14.5537 18.8285 15.0744 18.4011 15.4408 17.8528C15.8071 17.3045 16.0027 16.6598 16.0027 16.0004H19.3369Z" fill="white"/>
<path d="M19.3315 22.6685C20.6504 22.6685 21.9397 22.2774 23.0363 21.5446C24.133 20.8119 24.9877 19.7704 25.4924 18.5519C25.9971 17.3334 26.1292 15.9926 25.8719 14.699C25.6146 13.4055 24.9795 12.2173 24.0469 11.2847C23.1143 10.3521 21.926 9.71698 20.6325 9.45968C19.3389 9.20237 17.9981 9.33443 16.7796 9.83915C15.5611 10.3439 14.5197 11.1986 13.7869 12.2952C13.0542 13.3918 12.6631 14.6811 12.6631 16L15.9973 16C15.9973 15.3406 16.1929 14.6959 16.5592 14.1476C16.9256 13.5993 17.4463 13.1719 18.0556 12.9196C18.6648 12.6672 19.3352 12.6012 19.982 12.7298C20.6288 12.8585 21.2229 13.176 21.6892 13.6423C22.1555 14.1086 22.4731 14.7027 22.6017 15.3495C22.7304 15.9963 22.6643 16.6667 22.412 17.276C22.1596 17.8852 21.7323 18.4059 21.1839 18.7723C20.6356 19.1387 19.991 19.3342 19.3315 19.3342V22.6685Z" fill="white"/>
</svg>
