<svg width="12" height="12" viewBox="0 0 12 12" fill="none" xmlns="http://www.w3.org/2000/svg">
<path d="M0.734375 11H11M0.734375 11V8.4336L5.86717 3.30081M0.734375 11L3.30077 11L8.43356 5.8672M5.86717 3.30081L7.70768 1.46028L7.70879 1.45919C7.96214 1.20584 8.08905 1.07893 8.23533 1.0314C8.36419 0.989533 8.50301 0.989533 8.63187 1.0314C8.77805 1.0789 8.90481 1.20566 9.15781 1.45865L10.2741 2.57491C10.5281 2.82899 10.6552 2.95609 10.7028 3.10259C10.7447 3.23145 10.7447 3.37025 10.7028 3.49912C10.6553 3.64551 10.5284 3.77241 10.2746 4.02614L10.2741 4.02668L8.43356 5.8672M5.86717 3.30081L8.43356 5.8672" stroke="var(--white)" stroke-linecap="round" stroke-linejoin="round"/>
</svg>
