<svg width="14" height="14" viewBox="0 0 14 14" fill="none" xmlns="http://www.w3.org/2000/svg">
<path d="M5.09766 5.10889C5.21152 4.75803 5.4201 4.44579 5.70052 4.20614C5.98094 3.96649 6.32253 3.809 6.68685 3.7512C7.05117 3.6934 7.42415 3.73741 7.76497 3.8785C8.1058 4.01959 8.40097 4.25231 8.61784 4.5507C8.83471 4.84909 8.96459 5.20152 8.99358 5.56925C9.02257 5.93699 8.94923 6.30567 8.78179 6.63436C8.61436 6.96304 8.35958 7.23881 8.04507 7.43156C7.73056 7.62431 7.36888 7.72633 7 7.72633V8.3933M7 13.0598C3.68629 13.0598 1 10.3735 1 7.05981C1 3.74611 3.68629 1.05981 7 1.05981C10.3137 1.05981 13 3.74611 13 7.05981C13 10.3735 10.3137 13.0598 7 13.0598ZM7.0332 10.3931V10.4598L6.9668 10.4599V10.3931H7.0332Z" stroke="var(--white)" stroke-width="1.25" stroke-linecap="round" stroke-linejoin="round"/>
</svg>
