<svg width="15" height="15" viewBox="0 0 15 15" fill="none" xmlns="http://www.w3.org/2000/svg">
<path d="M8.76471 11.7951H13.7059M1 11.7951H2.41176M2.41176 11.7951C2.41176 12.7697 3.20185 13.5598 4.17647 13.5598C5.15109 13.5598 5.94118 12.7697 5.94118 11.7951C5.94118 10.8205 5.15109 10.0304 4.17647 10.0304C3.20185 10.0304 2.41176 10.8205 2.41176 11.7951ZM13 7.55981H13.7059M1 7.55981H5.94118M8.05882 3.32452H13.7059M8.05882 3.32452C8.05882 2.3499 7.26874 1.55981 6.29412 1.55981C5.3195 1.55981 4.52941 2.3499 4.52941 3.32452C4.52941 4.29914 5.3195 5.08923 6.29412 5.08923C7.26874 5.08923 8.05882 4.29914 8.05882 3.32452ZM1 3.32452H1.70588M10.5294 9.32452C9.55479 9.32452 8.76471 8.53443 8.76471 7.55981C8.76471 6.58519 9.55479 5.79511 10.5294 5.79511C11.504 5.79511 12.2941 6.58519 12.2941 7.55981C12.2941 8.53443 11.504 9.32452 10.5294 9.32452Z" stroke-width="1.25" stroke-linecap="round" stroke-linejoin="round"/>
</svg>
