<svg width="17" height="14" viewBox="0 0 17 14" fill="none" xmlns="http://www.w3.org/2000/svg">
<path d="M6.15495 6.22217L6.15495 13.2222M6.15495 6.22217L2.7328 6.22217C2.2972 6.22217 2.07924 6.22246 1.91287 6.30724C1.76652 6.38181 1.64762 6.49989 1.57305 6.64623C1.48828 6.81261 1.48828 7.03102 1.48828 7.46661L1.48828 13.2222L6.15495 13.2222M6.15495 6.22217L6.15495 2.02217C6.15495 1.58657 6.15495 1.36816 6.23972 1.20179C6.31429 1.05544 6.43319 0.937361 6.57954 0.862793C6.74591 0.77802 6.96387 0.777723 7.39947 0.777723L9.57725 0.777723C10.0128 0.777723 10.2303 0.77802 10.3967 0.862792C10.5431 0.93736 10.6624 1.05544 10.7369 1.20179C10.8216 1.368 10.8216 1.58584 10.8216 2.02059L10.8216 3.88883M6.15495 13.2222L10.8216 13.2222M10.8216 13.2222L15.4883 13.2222L15.4883 5.1317C15.4883 4.69695 15.4883 4.47911 15.4036 4.3129C15.329 4.16655 15.2098 4.04847 15.0635 3.9739C14.8971 3.88913 14.6794 3.88883 14.2438 3.88883L10.8216 3.88883M10.8216 13.2222L10.8216 3.88883" stroke="var(--white)" stroke-width="1.25" stroke-linecap="round" stroke-linejoin="round"/>
</svg>
