<svg width="25" height="24" viewBox="0 0 25 24" fill="none" xmlns="http://www.w3.org/2000/svg">
<path d="M0.275635 12C0.275635 18.6274 5.64822 24 12.2756 24C18.9031 24 24.2756 18.6274 24.2756 12C24.2756 5.37258 18.9031 0 12.2756 0C5.64822 0 0.275635 5.37258 0.275635 12Z" fill="#0079B5"/>
<path d="M6.35057 11.7812C9.57179 10.3778 11.7198 9.45256 12.7945 9.00553C15.8631 7.72919 16.5008 7.50747 16.9164 7.50007C17.0078 7.49854 17.2122 7.52119 17.3446 7.62862C17.4563 7.71932 17.4871 7.84186 17.5018 7.92786C17.5165 8.01386 17.5349 8.20977 17.5203 8.36285C17.354 10.1101 16.6345 14.3501 16.2684 16.307C16.1135 17.1351 15.8085 17.4127 15.5133 17.4399C14.8716 17.4989 14.3843 17.0158 13.7628 16.6084C12.7903 15.9709 12.2409 15.5741 11.2969 14.952C10.206 14.2331 10.9132 13.8379 11.5349 13.1922C11.6976 13.0232 14.5249 10.4516 14.5796 10.2183C14.5864 10.1891 14.5928 10.0804 14.5282 10.023C14.4636 9.96553 14.3682 9.98516 14.2994 10.0008C14.2018 10.0229 12.6482 11.0498 9.63855 13.0814C9.19757 13.3842 8.79813 13.5318 8.44025 13.524C8.04572 13.5155 7.2868 13.301 6.72262 13.1176C6.03063 12.8926 5.48065 12.7737 5.52854 12.3917C5.55349 12.1927 5.8275 11.9892 6.35057 11.7812Z" fill="white"/>
</svg>
