<svg width="54" height="67" viewBox="0 0 54 67" fill="none" xmlns="http://www.w3.org/2000/svg">
<path d="M26.8889 54.8333V33.5M26.8889 33.5L16.2222 40.6111M26.8889 33.5L37.5556 40.6111M30.4444 1.50309C30.1049 1.5 29.7237 1.5 29.2879 1.5H13.3785C9.39588 1.5 7.40309 1.5 5.88194 2.27507C4.5439 2.95683 3.45683 4.0439 2.77506 5.38194C2 6.90309 2 8.89588 2 12.8785V54.1229C2 58.1055 2 60.0958 2.77507 61.6169C3.45683 62.955 4.5439 64.0439 5.88194 64.7257C7.40162 65.5 9.39202 65.5 13.3669 65.5L40.411 65.5C44.3858 65.5 46.3733 65.5 47.893 64.7257C49.231 64.0439 50.3217 62.9549 51.0035 61.6169C51.7778 60.0972 51.7778 58.1097 51.7778 54.1349V23.9913C51.7778 23.555 51.7777 23.1733 51.7744 22.8333M30.4444 1.50309C31.46 1.51233 32.1025 1.54923 32.7159 1.69648C33.4415 1.87068 34.1346 2.15872 34.7708 2.54861C35.4882 2.98823 36.1042 3.60424 37.3333 4.83333L48.4462 15.9462C49.676 17.176 50.2875 17.7893 50.7273 18.5069C51.1172 19.1432 51.4057 19.8369 51.5799 20.5625C51.727 21.1756 51.7648 21.8182 51.7744 22.8333M30.4444 1.50309V11.4556C30.4444 15.4381 30.4444 17.4281 31.2195 18.9492C31.9013 20.2873 32.9883 21.3773 34.3264 22.059C35.8461 22.8333 37.8364 22.8333 41.8113 22.8333H51.7744M51.7744 22.8333H51.7785" stroke-width="3" stroke-linecap="round" stroke-linejoin="round"/>
</svg>
