<svg width="25" height="24" viewBox="0 0 25 24" fill="none" xmlns="http://www.w3.org/2000/svg">
<path d="M0.0393066 12C0.0393066 18.6274 5.41189 24 12.0393 24C18.6667 24 24.0393 18.6274 24.0393 12C24.0393 5.37258 18.6667 0 12.0393 0C5.41189 0 0.0393066 5.37258 0.0393066 12Z" fill="#10BD51"/>
<path fill-rule="evenodd" clip-rule="evenodd" d="M16.2393 7.725C15.1143 6.6 13.6143 6 12.0393 6C8.73931 6 6.03931 8.7 6.03931 12C6.03931 13.05 6.33931 14.1 6.86431 15L6.03931 18L9.18932 17.175C10.0893 17.625 11.0643 17.925 12.0393 17.925C15.3393 17.925 18.0393 15.225 18.0393 11.925C18.0393 10.35 17.3643 8.85 16.2393 7.725ZM12.0393 16.95C11.1393 16.95 10.2393 16.725 9.48931 16.275L9.3393 16.2L7.4643 16.725L7.98931 14.925L7.8393 14.7C7.3143 13.875 7.0893 12.975 7.0893 12.075C7.0893 9.375 9.33931 7.125 12.0393 7.125C13.3893 7.125 14.5893 7.65 15.5643 8.55C16.5393 9.525 16.9893 10.725 16.9893 12.075C16.9893 14.7 14.8143 16.95 12.0393 16.95ZM14.7393 13.2C14.5893 13.125 13.8393 12.75 13.6893 12.75C13.5393 12.675 13.4643 12.675 13.3893 12.825C13.3143 12.975 13.0143 13.275 12.9393 13.425C12.8643 13.5 12.7893 13.5 12.6393 13.5C12.4893 13.425 12.0393 13.275 11.4393 12.75C10.9893 12.375 10.6893 11.85 10.6143 11.7C10.5393 11.55 10.6143 11.475 10.6893 11.4C10.7643 11.325 10.8393 11.25 10.9143 11.175C10.9893 11.1 10.9893 11.025 11.0643 10.95C11.1393 10.875 11.0643 10.8 11.0643 10.725C11.0643 10.65 10.7643 9.9 10.6143 9.6C10.5393 9.375 10.3893 9.375 10.3143 9.375C10.2393 9.375 10.1643 9.375 10.0143 9.375C9.9393 9.375 9.7893 9.375 9.6393 9.525C9.4893 9.675 9.11431 10.05 9.11431 10.8C9.11431 11.55 9.6393 12.225 9.7143 12.375C9.7893 12.45 10.7643 14.025 12.2643 14.625C13.5393 15.15 13.7643 15 14.0643 15C14.3643 15 14.9643 14.625 15.0393 14.325C15.1893 13.95 15.1893 13.65 15.1143 13.65C15.0393 13.275 14.8893 13.275 14.7393 13.2Z" fill="white"/>
</svg>
