<svg width="1455" height="1080" viewBox="0 0 1455 1080" fill="none" xmlns="http://www.w3.org/2000/svg">
<g opacity="0.2">
<path d="M354.146 105.655C360.214 116.837 362.831 129.568 361.664 142.237C360.497 154.906 355.6 166.944 347.592 176.83C339.583 186.716 328.823 194.005 316.672 197.775C304.52 201.546 291.524 201.628 279.326 198.012C267.128 194.396 256.276 187.245 248.143 177.461C240.009 167.678 234.96 155.703 233.632 143.049C232.305 130.396 234.759 117.633 240.685 106.375C246.611 95.117 255.743 85.8688 266.925 79.8003L282.267 108.069C276.675 111.103 272.11 115.727 269.147 121.357C266.184 126.986 264.956 133.367 265.62 139.694C266.284 146.02 268.809 152.008 272.875 156.9C276.942 161.791 282.368 165.367 288.467 167.175C294.566 168.983 301.064 168.942 307.14 167.057C313.215 165.171 318.595 161.527 322.6 156.584C326.604 151.641 329.053 145.622 329.636 139.287C330.219 132.953 328.911 126.588 325.877 120.996L354.146 105.655Z" fill="#383B59"/>
<path d="M384.781 162.214C395.964 156.145 405.095 146.897 411.021 135.639C416.947 124.381 419.402 111.618 418.074 98.9649C416.747 86.3117 411.697 74.3362 403.564 64.5529C395.43 54.7696 384.578 47.6178 372.38 44.002C360.182 40.3861 347.186 40.4686 335.035 44.239C322.884 48.0094 312.124 55.2984 304.115 65.1842C296.106 75.07 291.209 87.1086 290.042 99.7777C288.876 112.447 291.492 125.177 297.561 136.359L325.83 121.018C322.795 115.427 321.487 109.062 322.07 102.727C322.654 96.3925 325.102 90.3731 329.107 85.4303C333.111 80.4874 338.491 76.8429 344.567 74.9577C350.642 73.0725 357.14 73.0312 363.239 74.8391C369.338 76.6471 374.764 80.2229 378.831 85.1146C382.898 90.0063 385.423 95.994 386.086 102.321C386.75 108.647 385.523 115.029 382.56 120.658C379.597 126.287 375.031 130.911 369.44 133.945L384.781 162.214Z" fill="#5661F6"/>
<path d="M781.878 108.146C791.877 126.571 796.189 147.548 794.266 168.424C792.344 189.3 784.274 209.137 771.078 225.427C757.881 241.716 740.151 253.727 720.128 259.94C700.106 266.153 678.691 266.289 658.591 260.33C638.492 254.372 620.61 242.588 607.208 226.467C593.806 210.346 585.485 190.613 583.298 169.763C581.11 148.914 585.155 127.884 594.92 109.332C604.685 90.7813 619.731 75.5424 638.157 65.5428L663.436 112.124C654.224 117.123 646.7 124.743 641.818 134.018C636.935 143.294 634.913 153.809 636.007 164.234C637.1 174.659 641.261 184.525 647.962 192.586C654.663 200.646 663.604 206.538 673.654 209.518C683.703 212.497 694.411 212.429 704.422 209.322C714.433 206.216 723.299 200.21 729.897 192.066C736.495 183.921 740.53 174.002 741.491 163.564C742.452 153.126 740.297 142.638 735.297 133.425L781.878 108.146Z" fill="#383B59"/>
<path d="M832.359 201.343C850.784 191.343 865.831 176.104 875.596 157.553C885.361 139.002 889.405 117.972 887.218 97.1219C885.031 76.2721 876.71 56.5391 863.308 40.4183C849.906 24.2976 832.024 12.513 811.925 6.55488C791.825 0.596764 770.41 0.732713 750.387 6.94551C730.365 13.1583 712.634 25.1689 699.438 41.4586C686.242 57.7482 678.172 77.5852 676.25 98.4611C674.327 119.337 678.638 140.314 688.638 158.74L735.219 133.46C730.219 124.247 728.064 113.759 729.025 103.321C729.986 92.883 734.021 82.9645 740.619 74.8197C747.217 66.6749 756.082 60.6695 766.094 57.5631C776.105 54.4567 786.812 54.3888 796.862 57.3678C806.912 60.3469 815.853 66.2392 822.554 74.2996C829.255 82.36 833.415 92.2264 834.509 102.651C835.603 113.076 833.58 123.591 828.698 132.867C823.815 142.142 816.292 149.762 807.079 154.762L832.359 201.343Z" fill="#5661F6"/>
<path d="M456.123 284.933C466.122 303.359 470.434 324.336 468.511 345.212C466.589 366.088 458.519 385.925 445.323 402.214C432.127 418.504 414.396 430.515 394.374 436.727C374.351 442.94 352.936 443.076 332.836 437.118C312.737 431.16 294.855 419.375 281.453 403.255C268.051 387.134 259.73 367.401 257.543 346.551C255.355 325.701 259.4 304.671 269.165 286.12C278.93 267.569 293.976 252.33 312.402 242.33L337.682 288.911C328.469 293.911 320.945 301.531 316.063 310.806C311.181 320.082 309.158 330.597 310.252 341.022C311.346 351.446 315.506 361.313 322.207 369.373C328.908 377.434 337.849 383.326 347.899 386.305C357.949 389.284 368.656 389.216 378.667 386.11C388.679 383.003 397.544 376.998 404.142 368.853C410.74 360.708 414.775 350.79 415.736 340.352C416.697 329.914 414.542 319.426 409.542 310.213L456.123 284.933Z" fill="#383B59"/>
<path d="M506.604 378.13C525.03 368.131 540.076 352.892 549.841 334.341C559.606 315.789 563.651 294.759 561.463 273.909C559.276 253.06 550.955 233.327 537.553 217.206C524.151 201.085 506.269 189.301 486.17 183.342C466.07 177.384 444.655 177.52 424.632 183.733C404.61 189.946 386.879 201.957 373.683 218.246C360.487 234.536 352.417 254.373 350.495 275.249C348.572 296.125 352.884 317.102 362.883 335.527L409.464 310.248C404.464 301.035 402.309 290.546 403.27 280.109C404.231 269.671 408.266 259.752 414.864 251.607C421.462 243.462 430.327 237.457 440.339 234.351C450.35 231.244 461.057 231.176 471.107 234.155C481.157 237.134 490.098 243.027 496.799 251.087C503.5 259.148 507.66 269.014 508.754 279.439C509.848 289.864 507.825 300.379 502.943 309.654C498.061 318.93 490.537 326.549 481.324 331.549L506.604 378.13Z" fill="#5661F6"/>
<path d="M551.839 -1.63313C557.907 9.54897 560.523 22.2795 559.357 34.9485C558.19 47.6176 553.293 59.6562 545.284 69.542C537.276 79.4278 526.516 86.7168 514.364 90.4872C502.213 94.2576 489.217 94.3401 477.019 90.7242C464.821 87.1084 453.969 79.9566 445.836 70.1733C437.702 60.39 432.652 48.4145 431.325 35.7613C429.998 23.1081 432.452 10.3454 438.378 -0.912883C444.304 -12.1711 453.436 -21.4192 464.618 -27.4878L479.959 0.78106C474.368 3.81533 469.803 8.43939 466.84 14.0685C463.877 19.6976 462.649 26.079 463.313 32.4056C463.977 38.7322 466.502 44.7199 470.568 49.6116C474.635 54.5033 480.061 58.0792 486.16 59.8871C492.259 61.695 498.757 61.6537 504.833 59.7685C510.908 57.8833 516.288 54.2389 520.293 49.296C524.297 44.3531 526.746 38.3338 527.329 31.9992C527.912 25.6647 526.604 19.2994 523.57 13.7084L551.839 -1.63313Z" fill="#383B59"/>
<path d="M582.474 54.9259C593.656 48.8574 602.788 39.6093 608.714 28.351C614.64 17.0928 617.095 4.33007 615.767 -8.32315C614.44 -20.9764 609.39 -32.9519 601.257 -42.7352C593.123 -52.5185 582.271 -59.6703 570.073 -63.2861C557.875 -66.902 544.879 -66.8195 532.728 -63.0491C520.577 -59.2786 509.816 -51.9897 501.808 -42.1039C493.799 -32.2181 488.902 -20.1795 487.735 -7.51043C486.569 5.15864 489.185 17.8891 495.254 29.0712L523.522 13.7297C520.488 8.13869 519.18 1.77343 519.763 -4.5611C520.347 -10.8956 522.795 -16.9149 526.8 -21.8578C530.804 -26.8007 536.184 -30.4452 542.26 -32.3304C548.335 -34.2156 554.833 -34.2569 560.932 -32.4489C567.031 -30.641 572.457 -27.0651 576.524 -22.1735C580.591 -17.2818 583.116 -11.2941 583.779 -4.96746C584.443 1.35916 583.216 7.74051 580.253 13.3696C577.29 18.9987 572.724 23.6228 567.133 26.6571L582.474 54.9259Z" fill="#5661F6"/>
<path d="M1107.63 -68.6415C1117.63 -50.2158 1121.94 -29.2387 1120.02 -8.36288C1118.1 12.513 1110.03 32.35 1096.83 48.6396C1083.64 64.9293 1065.91 76.9399 1045.88 83.1527C1025.86 89.3655 1004.45 89.5015 984.346 83.5433C964.246 77.5852 946.365 65.8007 932.963 49.6799C919.561 33.5591 911.24 13.8261 909.053 -7.02365C906.865 -27.8734 910.91 -48.9036 920.675 -67.4547C930.44 -86.0058 945.486 -101.245 963.912 -111.244L989.191 -64.6635C979.979 -59.6636 972.455 -52.0442 967.573 -42.7686C962.69 -33.4931 960.668 -22.978 961.762 -12.5531C962.855 -2.12822 967.016 7.73826 973.717 15.7987C980.418 23.859 989.359 29.7513 999.408 32.7304C1009.46 35.7095 1020.17 35.6415 1030.18 32.5351C1040.19 29.4287 1049.05 23.4233 1055.65 15.2785C1062.25 7.13372 1066.28 -2.7848 1067.25 -13.2227C1068.21 -23.6607 1066.05 -34.1492 1061.05 -43.362L1107.63 -68.6415Z" fill="#383B59"/>
<path d="M1158.11 24.5555C1176.54 14.5558 1191.59 -0.683057 1201.35 -19.2342C1211.12 -37.7853 1215.16 -58.8155 1212.97 -79.6652C1210.79 -100.515 1202.46 -120.248 1189.06 -136.369C1175.66 -152.49 1157.78 -164.274 1137.68 -170.232C1117.58 -176.19 1096.16 -176.054 1076.14 -169.842C1056.12 -163.629 1038.39 -151.618 1025.19 -135.329C1012 -119.039 1003.93 -99.2019 1002 -78.326C1000.08 -57.4502 1004.39 -36.4731 1014.39 -18.0474L1060.97 -43.3269C1055.97 -52.5397 1053.82 -63.0282 1054.78 -73.4662C1055.74 -83.9041 1059.78 -93.8226 1066.37 -101.967C1072.97 -110.112 1081.84 -116.118 1091.85 -119.224C1101.86 -122.33 1112.57 -122.398 1122.62 -119.419C1132.67 -116.44 1141.61 -110.548 1148.31 -102.488C1155.01 -94.4272 1159.17 -84.5607 1160.26 -74.1358C1161.36 -63.7109 1159.34 -53.1958 1154.45 -43.9202C1149.57 -34.6447 1142.05 -27.0252 1132.83 -22.0254L1158.11 24.5555Z" fill="#5661F6"/>
<path d="M370.76 1058.13C376.829 1069.31 379.445 1082.04 378.278 1094.71C377.112 1107.38 372.215 1119.42 364.206 1129.31C356.197 1139.19 345.437 1146.48 333.286 1150.25C321.135 1154.02 308.139 1154.11 295.941 1150.49C283.743 1146.87 272.891 1139.72 264.757 1129.94C256.624 1120.16 251.574 1108.18 250.247 1095.53C248.919 1082.87 251.374 1070.11 257.3 1058.85C263.226 1047.59 272.357 1038.35 283.54 1032.28L298.881 1060.55C293.29 1063.58 288.724 1068.2 285.761 1073.83C282.798 1079.46 281.571 1085.84 282.235 1092.17C282.898 1098.5 285.423 1104.49 289.49 1109.38C293.557 1114.27 298.983 1117.84 305.082 1119.65C311.181 1121.46 317.679 1121.42 323.754 1119.53C329.83 1117.65 335.21 1114 339.214 1109.06C343.219 1104.12 345.667 1098.1 346.251 1091.76C346.834 1085.43 345.526 1079.06 342.491 1073.47L370.76 1058.13Z" fill="#383B59"/>
<path d="M401.396 1114.69C412.578 1108.62 421.709 1099.37 427.636 1088.12C433.562 1076.86 436.016 1064.1 434.689 1051.44C433.361 1038.79 428.312 1026.81 420.178 1017.03C412.045 1007.25 401.193 1000.09 388.995 996.479C376.797 992.863 363.801 992.946 351.649 996.716C339.498 1000.49 328.738 1007.78 320.729 1017.66C312.721 1027.55 307.824 1039.59 306.657 1052.25C305.49 1064.92 308.107 1077.65 314.175 1088.84L342.444 1073.49C339.41 1067.9 338.102 1061.54 338.685 1055.2C339.268 1048.87 341.717 1042.85 345.721 1037.91C349.725 1032.96 355.106 1029.32 361.181 1027.43C367.257 1025.55 373.755 1025.51 379.854 1027.32C385.953 1029.12 391.379 1032.7 395.446 1037.59C399.512 1042.48 402.037 1048.47 402.701 1054.8C403.365 1061.12 402.137 1067.51 399.174 1073.13C396.211 1078.76 391.645 1083.39 386.054 1086.42L401.396 1114.69Z" fill="#5661F6"/>
<path d="M314.368 845.72C324.368 864.146 328.679 885.123 326.757 905.999C324.834 926.875 316.765 946.712 303.568 963.001C290.372 979.291 272.641 991.302 252.619 997.515C232.597 1003.73 211.181 1003.86 191.082 997.905C170.982 991.947 153.1 980.162 139.698 964.042C126.296 947.921 117.975 928.188 115.788 907.338C113.601 886.488 117.645 865.458 127.41 846.907C137.175 828.356 152.222 813.117 170.647 803.117L195.927 849.698C186.714 854.698 179.191 862.318 174.308 871.593C169.426 880.869 167.404 891.384 168.497 901.809C169.591 912.234 173.751 922.1 180.452 930.16C187.153 938.221 196.094 944.113 206.144 947.092C216.194 950.071 226.901 950.003 236.913 946.897C246.924 943.79 255.789 937.785 262.387 929.64C268.986 921.496 273.02 911.577 273.982 901.139C274.943 890.701 272.787 880.213 267.787 871L314.368 845.72Z" fill="#383B59"/>
<path d="M364.849 938.917C383.275 928.918 398.322 913.679 408.086 895.128C417.851 876.577 421.896 855.546 419.709 834.697C417.521 813.847 409.201 794.114 395.798 777.993C382.396 761.872 364.515 750.088 344.415 744.13C324.315 738.171 302.9 738.307 282.878 744.52C262.855 750.733 245.125 762.744 231.928 779.033C218.732 795.323 210.662 815.16 208.74 836.036C206.818 856.912 211.129 877.889 221.128 896.314L267.709 871.035C262.71 861.822 260.554 851.334 261.515 840.896C262.476 830.458 266.511 820.539 273.109 812.394C279.708 804.25 288.573 798.244 298.584 795.138C308.595 792.031 319.303 791.963 329.353 794.943C339.403 797.922 348.343 803.814 355.044 811.874C361.745 819.935 365.906 829.801 366.999 840.226C368.093 850.651 366.071 861.166 361.188 870.442C356.306 879.717 348.783 887.337 339.57 892.336L364.849 938.917Z" fill="#5661F6"/>
<path d="M538.146 489.654C544.214 500.837 546.831 513.567 545.664 526.236C544.497 538.905 539.6 550.944 531.592 560.83C523.583 570.715 512.823 578.004 500.672 581.775C488.52 585.545 475.524 585.628 463.326 582.012C451.128 578.396 440.276 571.244 432.143 561.461C424.009 551.678 418.96 539.702 417.632 527.049C416.305 514.396 418.759 501.633 424.685 490.375C430.611 479.116 439.743 469.868 450.925 463.8L466.267 492.069C460.675 495.103 456.11 499.727 453.147 505.356C450.184 510.985 448.956 517.367 449.62 523.693C450.284 530.02 452.809 536.008 456.875 540.899C460.942 545.791 466.368 549.367 472.467 551.175C478.566 552.983 485.064 552.941 491.14 551.056C497.215 549.171 502.595 545.526 506.6 540.584C510.604 535.641 513.053 529.621 513.636 523.287C514.219 516.952 512.911 510.587 509.877 504.996L538.146 489.654Z" fill="#383B59"/>
<path d="M568.781 546.214C579.964 540.145 589.095 530.897 595.021 519.639C600.947 508.38 603.402 495.618 602.074 482.964C600.747 470.311 595.697 458.336 587.564 448.552C579.43 438.769 568.578 431.617 556.38 428.001C544.182 424.386 531.186 424.468 519.035 428.239C506.884 432.009 496.124 439.298 488.115 449.184C480.106 459.069 475.209 471.108 474.042 483.777C472.876 496.446 475.492 509.177 481.561 520.359L509.83 505.017C506.795 499.426 505.487 493.061 506.07 486.726C506.654 480.392 509.102 474.373 513.107 469.43C517.111 464.487 522.491 460.842 528.567 458.957C534.642 457.072 541.14 457.031 547.239 458.839C553.338 460.647 558.764 464.222 562.831 469.114C566.898 474.006 569.423 479.994 570.086 486.32C570.75 492.647 569.523 499.028 566.56 504.657C563.597 510.286 559.031 514.91 553.44 517.945L568.781 546.214Z" fill="#5661F6"/>
<path d="M766.146 843.556C772.214 854.738 774.831 867.469 773.664 880.138C772.497 892.807 767.6 904.846 759.592 914.731C751.583 924.617 740.823 931.906 728.672 935.677C716.52 939.447 703.524 939.53 691.326 935.914C679.128 932.298 668.276 925.146 660.143 915.363C652.009 905.579 646.96 893.604 645.632 880.951C644.305 868.298 646.759 855.535 652.685 844.277C658.611 833.018 667.743 823.77 678.925 817.702L694.267 845.971C688.675 849.005 684.11 853.629 681.147 859.258C678.184 864.887 676.956 871.268 677.62 877.595C678.284 883.922 680.809 889.909 684.875 894.801C688.942 899.693 694.368 903.269 700.467 905.077C706.566 906.884 713.064 906.843 719.14 904.958C725.215 903.073 730.595 899.428 734.6 894.485C738.604 889.543 741.053 883.523 741.636 877.189C742.219 870.854 740.911 864.489 737.877 858.898L766.146 843.556Z" fill="#383B59"/>
<path d="M796.781 900.115C807.964 894.047 817.095 884.799 823.021 873.54C828.947 862.282 831.402 849.52 830.074 836.866C828.747 824.213 823.697 812.238 815.564 802.454C807.43 792.671 796.578 785.519 784.38 781.903C772.182 778.287 759.186 778.37 747.035 782.14C734.884 785.911 724.124 793.2 716.115 803.086C708.106 812.971 703.209 825.01 702.042 837.679C700.876 850.348 703.492 863.079 709.561 874.261L737.83 858.919C734.795 853.328 733.487 846.963 734.07 840.628C734.654 834.294 737.102 828.275 741.107 823.332C745.111 818.389 750.491 814.744 756.567 812.859C762.642 810.974 769.14 810.933 775.239 812.741C781.338 814.548 786.764 818.124 790.831 823.016C794.898 827.908 797.423 833.895 798.086 840.222C798.75 846.549 797.523 852.93 794.56 858.559C791.597 864.188 787.031 868.812 781.44 871.847L796.781 900.115Z" fill="#5661F6"/>
<path d="M1154.15 1119.56C1160.21 1130.74 1162.83 1143.47 1161.66 1156.14C1160.5 1168.81 1155.6 1180.85 1147.59 1190.73C1139.58 1200.62 1128.82 1207.91 1116.67 1211.68C1104.52 1215.45 1091.52 1215.53 1079.33 1211.91C1067.13 1208.3 1056.28 1201.15 1048.14 1191.36C1040.01 1181.58 1034.96 1169.6 1033.63 1156.95C1032.3 1144.3 1034.76 1131.53 1040.69 1120.28C1046.61 1109.02 1055.74 1099.77 1066.93 1093.7L1082.27 1121.97C1076.68 1125 1072.11 1129.63 1069.15 1135.26C1066.18 1140.89 1064.96 1147.27 1065.62 1153.6C1066.28 1159.92 1068.81 1165.91 1072.88 1170.8C1076.94 1175.69 1082.37 1179.27 1088.47 1181.08C1094.57 1182.88 1101.06 1182.84 1107.14 1180.96C1113.22 1179.07 1118.6 1175.43 1122.6 1170.49C1126.6 1165.54 1129.05 1159.52 1129.64 1153.19C1130.22 1146.85 1128.91 1140.49 1125.88 1134.9L1154.15 1119.56Z" fill="#383B59"/>
<path d="M1184.78 1176.12C1195.96 1170.05 1205.09 1160.8 1211.02 1149.54C1216.95 1138.28 1219.4 1125.52 1218.07 1112.87C1216.75 1100.21 1211.7 1088.24 1203.56 1078.45C1195.43 1068.67 1184.58 1061.52 1172.38 1057.9C1160.18 1054.29 1147.19 1054.37 1135.03 1058.14C1122.88 1061.91 1112.12 1069.2 1104.11 1079.09C1096.11 1088.97 1091.21 1101.01 1090.04 1113.68C1088.88 1126.35 1091.49 1139.08 1097.56 1150.26L1125.83 1134.92C1122.8 1129.33 1121.49 1122.96 1122.07 1116.63C1122.65 1110.29 1125.1 1104.27 1129.11 1099.33C1133.11 1094.39 1138.49 1090.74 1144.57 1088.86C1150.64 1086.97 1157.14 1086.93 1163.24 1088.74C1169.34 1090.55 1174.76 1094.12 1178.83 1099.02C1182.9 1103.91 1185.42 1109.9 1186.09 1116.22C1186.75 1122.55 1185.52 1128.93 1182.56 1134.56C1179.6 1140.19 1175.03 1144.81 1169.44 1147.85L1184.78 1176.12Z" fill="#5661F6"/>
<path d="M965.878 492.146C975.877 510.571 980.189 531.548 978.266 552.424C976.344 573.3 968.274 593.137 955.078 609.427C941.881 625.716 924.151 637.727 904.128 643.94C884.106 650.153 862.691 650.289 842.591 644.33C822.492 638.372 804.61 626.588 791.208 610.467C777.806 594.346 769.485 574.613 767.298 553.763C765.11 532.914 769.155 511.884 778.92 493.332C788.685 474.781 803.731 459.542 822.157 449.543L847.436 496.124C838.224 501.123 830.7 508.743 825.818 518.018C820.935 527.294 818.913 537.809 820.007 548.234C821.1 558.659 825.261 568.525 831.962 576.586C838.663 584.646 847.604 590.538 857.654 593.518C867.703 596.497 878.411 596.429 888.422 593.322C898.433 590.216 907.299 584.21 913.897 576.066C920.495 567.921 924.53 558.002 925.491 547.564C926.452 537.126 924.297 526.638 919.297 517.425L965.878 492.146Z" fill="#383B59"/>
<path d="M1016.36 585.343C1034.78 575.343 1049.83 560.104 1059.6 541.553C1069.36 523.002 1073.41 501.972 1071.22 481.122C1069.03 460.272 1060.71 440.539 1047.31 424.418C1033.91 408.298 1016.02 396.513 995.925 390.555C975.825 384.597 954.41 384.733 934.387 390.946C914.365 397.158 896.634 409.169 883.438 425.459C870.242 441.748 862.172 461.585 860.25 482.461C858.327 503.337 862.638 524.314 872.638 542.74L919.219 517.46C914.219 508.247 912.064 497.759 913.025 487.321C913.986 476.883 918.021 466.964 924.619 458.82C931.217 450.675 940.082 444.67 950.094 441.563C960.105 438.457 970.812 438.389 980.862 441.368C990.912 444.347 999.853 450.239 1006.55 458.3C1013.25 466.36 1017.42 476.226 1018.51 486.651C1019.6 497.076 1017.58 507.591 1012.7 516.867C1007.82 526.142 1000.29 533.762 991.079 538.762L1016.36 585.343Z" fill="#5661F6"/>
<path d="M1193.88 846.047C1203.88 864.473 1208.19 885.45 1206.27 906.326C1204.34 927.202 1196.27 947.039 1183.08 963.329C1169.88 979.618 1152.15 991.629 1132.13 997.842C1112.11 1004.05 1090.69 1004.19 1070.59 998.232C1050.49 992.274 1032.61 980.49 1019.21 964.369C1005.81 948.248 997.485 928.515 995.298 907.665C993.11 886.816 997.155 865.785 1006.92 847.234C1016.68 828.683 1031.73 813.444 1050.16 803.445L1075.44 850.026C1066.22 855.025 1058.7 862.645 1053.82 871.92C1048.94 881.196 1046.91 891.711 1048.01 902.136C1049.1 912.561 1053.26 922.427 1059.96 930.488C1066.66 938.548 1075.6 944.44 1085.65 947.419C1095.7 950.398 1106.41 950.33 1116.42 947.224C1126.43 944.118 1135.3 938.112 1141.9 929.967C1148.5 921.823 1152.53 911.904 1153.49 901.466C1154.45 891.028 1152.3 880.54 1147.3 871.327L1193.88 846.047Z" fill="#383B59"/>
<path d="M1244.36 939.244C1262.78 929.245 1277.83 914.006 1287.6 895.455C1297.36 876.904 1301.41 855.874 1299.22 835.024C1297.03 814.174 1288.71 794.441 1275.31 778.32C1261.91 762.199 1244.02 750.415 1223.92 744.457C1203.82 738.499 1182.41 738.635 1162.39 744.847C1142.36 751.06 1124.63 763.071 1111.44 779.36C1098.24 795.65 1090.17 815.487 1088.25 836.363C1086.33 857.239 1090.64 878.216 1100.64 896.642L1147.22 871.362C1142.22 862.149 1140.06 851.661 1141.02 841.223C1141.99 830.785 1146.02 820.866 1152.62 812.722C1159.22 804.577 1168.08 798.571 1178.09 795.465C1188.1 792.359 1198.81 792.291 1208.86 795.27C1218.91 798.249 1227.85 804.141 1234.55 812.201C1241.25 820.262 1245.42 830.128 1246.51 840.553C1247.6 850.978 1245.58 861.493 1240.7 870.769C1235.82 880.044 1228.29 887.664 1219.08 892.664L1244.36 939.244Z" fill="#5661F6"/>
<path d="M933.531 275.079C939.6 286.261 942.216 298.991 941.049 311.66C939.883 324.33 934.986 336.368 926.977 346.254C918.968 356.14 908.208 363.429 896.057 367.199C883.906 370.969 870.91 371.052 858.712 367.436C846.514 363.82 835.662 356.669 827.528 346.885C819.395 337.102 814.345 325.126 813.018 312.473C811.69 299.82 814.145 287.057 820.071 275.799C825.997 264.541 835.128 255.293 846.311 249.224L861.652 277.493C856.061 280.527 851.495 285.151 848.532 290.78C845.569 296.41 844.342 302.791 845.006 309.118C845.669 315.444 848.194 321.432 852.261 326.324C856.328 331.215 861.754 334.791 867.853 336.599C873.952 338.407 880.45 338.366 886.525 336.48C892.601 334.595 897.981 330.951 901.985 326.008C905.99 321.065 908.438 315.046 909.022 308.711C909.605 302.377 908.297 296.011 905.262 290.42L933.531 275.079Z" fill="#383B59"/>
<path d="M964.167 331.638C975.349 325.569 984.48 316.321 990.407 305.063C996.333 293.805 998.787 281.042 997.46 268.389C996.132 255.736 991.083 243.76 982.949 233.977C974.816 224.193 963.964 217.042 951.766 213.426C939.568 209.81 926.572 209.892 914.42 213.663C902.269 217.433 891.509 224.722 883.5 234.608C875.492 244.494 870.595 256.532 869.428 269.201C868.261 281.871 870.878 294.601 876.946 305.783L905.215 290.442C902.181 284.851 900.873 278.485 901.456 272.151C902.039 265.816 904.488 259.797 908.492 254.854C912.496 249.911 917.877 246.267 923.952 244.381C930.028 242.496 936.526 242.455 942.625 244.263C948.724 246.071 954.15 249.647 958.217 254.538C962.283 259.43 964.808 265.418 965.472 271.744C966.136 278.071 964.908 284.452 961.945 290.082C958.982 295.711 954.416 300.335 948.825 303.369L964.167 331.638Z" fill="#5661F6"/>
<path d="M1161.53 628.98C1167.6 640.162 1170.22 652.893 1169.05 665.562C1167.88 678.231 1162.99 690.27 1154.98 700.155C1146.97 710.041 1136.21 717.33 1124.06 721.1C1111.91 724.871 1098.91 724.953 1086.71 721.338C1074.51 717.722 1063.66 710.57 1055.53 700.787C1047.39 691.003 1042.35 679.028 1041.02 666.375C1039.69 653.721 1042.14 640.959 1048.07 629.7C1054 618.442 1063.13 609.194 1074.31 603.126L1089.65 631.394C1084.06 634.429 1079.5 639.053 1076.53 644.682C1073.57 650.311 1072.34 656.692 1073.01 663.019C1073.67 669.345 1076.19 675.333 1080.26 680.225C1084.33 685.117 1089.75 688.692 1095.85 690.5C1101.95 692.308 1108.45 692.267 1114.53 690.382C1120.6 688.497 1125.98 684.852 1129.99 679.909C1133.99 674.966 1136.44 668.947 1137.02 662.612C1137.6 656.278 1136.3 649.913 1133.26 644.322L1161.53 628.98Z" fill="#383B59"/>
<path d="M1192.17 685.539C1203.35 679.471 1212.48 670.223 1218.41 658.964C1224.33 647.706 1226.79 634.943 1225.46 622.29C1224.13 609.637 1219.08 597.661 1210.95 587.878C1202.82 578.095 1191.96 570.943 1179.77 567.327C1167.57 563.711 1154.57 563.794 1142.42 567.564C1130.27 571.335 1119.51 578.624 1111.5 588.509C1103.49 598.395 1098.59 610.434 1097.43 623.103C1096.26 635.772 1098.88 648.502 1104.95 659.685L1133.22 644.343C1130.18 638.752 1128.87 632.387 1129.46 626.052C1130.04 619.718 1132.49 613.698 1136.49 608.755C1140.5 603.813 1145.88 600.168 1151.95 598.283C1158.03 596.398 1164.53 596.356 1170.62 598.164C1176.72 599.972 1182.15 603.548 1186.22 608.44C1190.28 613.331 1192.81 619.319 1193.47 625.646C1194.14 631.972 1192.91 638.354 1189.95 643.983C1186.98 649.612 1182.42 654.236 1176.83 657.27L1192.17 685.539Z" fill="#5661F6"/>
<path d="M1549.53 904.981C1555.6 916.163 1558.22 928.893 1557.05 941.562C1555.88 954.231 1550.99 966.27 1542.98 976.156C1534.97 986.042 1524.21 993.331 1512.06 997.101C1499.91 1000.87 1486.91 1000.95 1474.71 997.338C1462.51 993.722 1451.66 986.57 1443.53 976.787C1435.39 967.004 1430.35 955.028 1429.02 942.375C1427.69 929.722 1430.14 916.959 1436.07 905.701C1442 894.443 1451.13 885.195 1462.31 879.126L1477.65 907.395C1472.06 910.429 1467.5 915.053 1464.53 920.682C1461.57 926.311 1460.34 932.693 1461.01 939.019C1461.67 945.346 1464.19 951.334 1468.26 956.225C1472.33 961.117 1477.75 964.693 1483.85 966.501C1489.95 968.309 1496.45 968.268 1502.53 966.382C1508.6 964.497 1513.98 960.853 1517.99 955.91C1521.99 950.967 1524.44 944.948 1525.02 938.613C1525.6 932.278 1524.3 925.913 1521.26 920.322L1549.53 904.981Z" fill="#383B59"/>
<path d="M1580.17 961.54C1591.35 955.471 1600.48 946.223 1606.41 934.965C1612.33 923.707 1614.79 910.944 1613.46 898.291C1612.13 885.637 1607.08 873.662 1598.95 863.879C1590.82 854.095 1579.96 846.943 1567.77 843.328C1555.57 839.712 1542.57 839.794 1530.42 843.565C1518.27 847.335 1507.51 854.624 1499.5 864.51C1491.49 874.396 1486.59 886.434 1485.43 899.103C1484.26 911.772 1486.88 924.503 1492.95 935.685L1521.22 920.344C1518.18 914.752 1516.87 908.387 1517.46 902.053C1518.04 895.718 1520.49 889.699 1524.49 884.756C1528.5 879.813 1533.88 876.169 1539.95 874.283C1546.03 872.398 1552.53 872.357 1558.62 874.165C1564.72 875.973 1570.15 879.549 1574.22 884.44C1578.28 889.332 1580.81 895.32 1581.47 901.646C1582.14 907.973 1580.91 914.354 1577.95 919.983C1574.98 925.613 1570.42 930.237 1564.83 933.271L1580.17 961.54Z" fill="#5661F6"/>
<path d="M1318.76 62.0964C1324.83 73.2785 1327.45 86.009 1326.28 98.678C1325.11 111.347 1320.21 123.386 1312.21 133.272C1304.2 143.157 1293.44 150.446 1281.29 154.217C1269.13 157.987 1256.14 158.07 1243.94 154.454C1231.74 150.838 1220.89 143.686 1212.76 133.903C1204.62 124.119 1199.57 112.144 1198.25 99.4908C1196.92 86.8375 1199.37 74.0748 1205.3 62.8166C1211.23 51.5584 1220.36 42.3102 1231.54 36.2417L1246.88 64.5106C1241.29 67.5448 1236.72 72.1689 1233.76 77.798C1230.8 83.4271 1229.57 89.8085 1230.23 96.1351C1230.9 102.462 1233.42 108.449 1237.49 113.341C1241.56 118.233 1246.98 121.809 1253.08 123.617C1259.18 125.424 1265.68 125.383 1271.75 123.498C1277.83 121.613 1283.21 117.968 1287.21 113.025C1291.22 108.083 1293.67 102.063 1294.25 95.7287C1294.83 89.3942 1293.53 83.0289 1290.49 77.4379L1318.76 62.0964Z" fill="#383B59"/>
<path d="M1349.4 118.655C1360.58 112.587 1369.71 103.339 1375.64 92.0805C1381.56 80.8223 1384.02 68.0596 1382.69 55.4063C1381.36 42.7531 1376.31 30.7776 1368.18 20.9943C1360.04 11.211 1349.19 4.05921 1336.99 0.44337C1324.8 -3.17247 1311.8 -3.08996 1299.65 0.680437C1287.5 4.45084 1276.74 11.7398 1268.73 21.6256C1260.72 31.5114 1255.82 43.55 1254.66 56.2191C1253.49 68.8881 1256.11 81.6186 1262.18 92.8007L1290.44 77.4592C1287.41 71.8682 1286.1 65.5029 1286.68 59.1684C1287.27 52.8339 1289.72 46.8146 1293.72 41.8717C1297.73 36.9288 1303.11 33.2843 1309.18 31.3991C1315.26 29.5139 1321.75 29.4726 1327.85 31.2806C1333.95 33.0885 1339.38 36.6643 1343.45 41.556C1347.51 46.4477 1350.04 52.4354 1350.7 58.762C1351.36 65.0886 1350.14 71.47 1347.17 77.0991C1344.21 82.7282 1339.65 87.3523 1334.05 90.3866L1349.4 118.655Z" fill="#5661F6"/>
<path d="M1546.76 415.998C1552.83 427.18 1555.45 439.91 1554.28 452.579C1553.11 465.248 1548.21 477.287 1540.21 487.173C1532.2 497.059 1521.44 504.348 1509.29 508.118C1497.13 511.888 1484.14 511.971 1471.94 508.355C1459.74 504.739 1448.89 497.587 1440.76 487.804C1432.62 478.021 1427.57 466.045 1426.25 453.392C1424.92 440.739 1427.37 427.976 1433.3 416.718C1439.23 405.46 1448.36 396.212 1459.54 390.143L1474.88 418.412C1469.29 421.446 1464.72 426.07 1461.76 431.699C1458.8 437.328 1457.57 443.71 1458.23 450.036C1458.9 456.363 1461.42 462.351 1465.49 467.242C1469.56 472.134 1474.98 475.71 1481.08 477.518C1487.18 479.326 1493.68 479.285 1499.75 477.399C1505.83 475.514 1511.21 471.87 1515.21 466.927C1519.22 461.984 1521.67 455.965 1522.25 449.63C1522.83 443.296 1521.53 436.93 1518.49 431.339L1546.76 415.998Z" fill="#383B59"/>
<path d="M1577.4 472.557C1588.58 466.488 1597.71 457.24 1603.64 445.982C1609.56 434.724 1612.02 421.961 1610.69 409.308C1609.36 396.654 1604.31 384.679 1596.18 374.896C1588.04 365.112 1577.19 357.961 1564.99 354.345C1552.8 350.729 1539.8 350.811 1527.65 354.582C1515.5 358.352 1504.74 365.641 1496.73 375.527C1488.72 385.413 1483.82 397.451 1482.66 410.12C1481.49 422.789 1484.11 435.52 1490.18 446.702L1518.44 431.361C1515.41 425.77 1514.1 419.404 1514.68 413.07C1515.27 406.735 1517.72 400.716 1521.72 395.773C1525.73 390.83 1531.11 387.186 1537.18 385.3C1543.26 383.415 1549.75 383.374 1555.85 385.182C1561.95 386.99 1567.38 390.566 1571.45 395.457C1575.51 400.349 1578.04 406.337 1578.7 412.663C1579.36 418.99 1578.14 425.371 1575.17 431C1572.21 436.63 1567.65 441.254 1562.05 444.288L1577.4 472.557Z" fill="#5661F6"/>
<path d="M1617.39 138.571C1627.39 156.997 1631.7 177.974 1629.78 198.85C1627.85 219.726 1619.78 239.563 1606.59 255.853C1593.39 272.142 1575.66 284.153 1555.64 290.366C1535.62 296.578 1514.2 296.714 1494.1 290.756C1474 284.798 1456.12 273.014 1442.72 256.893C1429.31 240.772 1420.99 221.039 1418.81 200.189C1416.62 179.339 1420.66 158.309 1430.43 139.758C1440.19 121.207 1455.24 105.968 1473.67 95.9685L1498.95 142.549C1489.73 147.549 1482.21 155.169 1477.33 164.444C1472.44 173.72 1470.42 184.235 1471.52 194.66C1472.61 205.085 1476.77 214.951 1483.47 223.012C1490.17 231.072 1499.11 236.964 1509.16 239.943C1519.21 242.922 1529.92 242.854 1539.93 239.748C1549.94 236.642 1558.81 230.636 1565.41 222.491C1572 214.347 1576.04 204.428 1577 193.99C1577.96 183.552 1575.81 173.064 1570.81 163.851L1617.39 138.571Z" fill="#383B59"/>
<path d="M1667.87 231.768C1686.29 221.769 1701.34 206.53 1711.11 187.979C1720.87 169.428 1724.91 148.397 1722.73 127.548C1720.54 106.698 1712.22 86.9649 1698.82 70.8441C1685.42 54.7233 1667.53 42.9388 1647.43 36.9807C1627.33 31.0225 1605.92 31.1585 1585.9 37.3713C1565.87 43.5841 1548.14 55.5947 1534.95 71.8844C1521.75 88.174 1513.68 108.011 1511.76 128.887C1509.84 149.763 1514.15 170.74 1524.15 189.165L1570.73 163.886C1565.73 154.673 1563.57 144.185 1564.53 133.747C1565.5 123.309 1569.53 113.39 1576.13 105.245C1582.73 97.1007 1591.59 91.0953 1601.6 87.9889C1611.61 84.8825 1622.32 84.8146 1632.37 87.7936C1642.42 90.7727 1651.36 96.665 1658.06 104.725C1664.76 112.786 1668.92 122.652 1670.02 133.077C1671.11 143.502 1669.09 154.017 1664.21 163.293C1659.32 172.568 1651.8 180.188 1642.59 185.187L1667.87 231.768Z" fill="#5661F6"/>
<path d="M340.453 596.943C346.522 608.125 349.138 620.855 347.971 633.524C346.805 646.193 341.907 658.232 333.899 668.118C325.89 678.003 315.13 685.292 302.979 689.063C290.828 692.833 277.831 692.916 265.633 689.3C253.435 685.684 242.584 678.532 234.45 668.749C226.317 658.966 221.267 646.99 219.94 634.337C218.612 621.684 221.067 608.921 226.993 597.663C232.919 586.405 242.05 577.156 253.232 571.088L268.574 599.357C262.983 602.391 258.417 607.015 255.454 612.644C252.491 618.273 251.264 624.655 251.927 630.981C252.591 637.308 255.116 643.296 259.183 648.187C263.249 653.079 268.675 656.655 274.774 658.463C280.873 660.271 287.372 660.229 293.447 658.344C299.523 656.459 304.903 652.815 308.907 647.872C312.911 642.929 315.36 636.909 315.943 630.575C316.527 624.24 315.219 617.875 312.184 612.284L340.453 596.943Z" fill="#383B59"/>
<path d="M371.089 653.502C382.271 647.433 391.402 638.185 397.328 626.927C403.255 615.668 405.709 602.906 404.382 590.253C403.054 577.599 398.005 565.624 389.871 555.84C381.738 546.057 370.886 538.905 358.688 535.29C346.49 531.674 333.493 531.756 321.342 535.527C309.191 539.297 298.431 546.586 290.422 556.472C282.414 566.358 277.517 578.396 276.35 591.065C275.183 603.734 277.8 616.465 283.868 627.647L312.137 612.305C309.103 606.714 307.795 600.349 308.378 594.015C308.961 587.68 311.41 581.661 315.414 576.718C319.418 571.775 324.798 568.13 330.874 566.245C336.95 564.36 343.448 564.319 349.547 566.127C355.646 567.935 361.072 571.511 365.138 576.402C369.205 581.294 371.73 587.282 372.394 593.608C373.057 599.935 371.83 606.316 368.867 611.945C365.904 617.574 361.338 622.198 355.747 625.233L371.089 653.502Z" fill="#5661F6"/>
<path d="M568.453 950.844C574.522 962.027 577.138 974.757 575.971 987.426C574.805 1000.1 569.907 1012.13 561.899 1022.02C553.89 1031.91 543.13 1039.19 530.979 1042.96C518.828 1046.74 505.831 1046.82 493.633 1043.2C481.435 1039.59 470.584 1032.43 462.45 1022.65C454.317 1012.87 449.267 1000.89 447.94 988.239C446.612 975.586 449.067 962.823 454.993 951.565C460.919 940.306 470.05 931.058 481.232 924.99L496.574 953.259C490.983 956.293 486.417 960.917 483.454 966.546C480.491 972.175 479.264 978.557 479.927 984.883C480.591 991.21 483.116 997.197 487.183 1002.09C491.249 1006.98 496.675 1010.56 502.774 1012.36C508.873 1014.17 515.372 1014.13 521.447 1012.25C527.523 1010.36 532.903 1006.72 536.907 1001.77C540.911 996.831 543.36 990.811 543.943 984.477C544.527 978.142 543.219 971.777 540.184 966.186L568.453 950.844Z" fill="#383B59"/>
<path d="M599.089 1007.4C610.271 1001.33 619.402 992.087 625.328 980.829C631.255 969.57 633.709 956.808 632.382 944.154C631.054 931.501 626.005 919.526 617.871 909.742C609.738 899.959 598.886 892.807 586.688 889.191C574.49 885.576 561.493 885.658 549.342 889.428C537.191 893.199 526.431 900.488 518.422 910.374C510.414 920.259 505.517 932.298 504.35 944.967C503.183 957.636 505.8 970.367 511.868 981.549L540.137 966.207C537.103 960.616 535.795 954.251 536.378 947.916C536.961 941.582 539.41 935.563 543.414 930.62C547.418 925.677 552.798 922.032 558.874 920.147C564.95 918.262 571.448 918.221 577.547 920.029C583.646 921.837 589.072 925.412 593.138 930.304C597.205 935.196 599.73 941.183 600.394 947.51C601.057 953.837 599.83 960.218 596.867 965.847C593.904 971.476 589.338 976.1 583.747 979.135L599.089 1007.4Z" fill="#5661F6"/>
<path d="M640.123 668.933C650.122 687.359 654.434 708.336 652.511 729.212C650.589 750.088 642.519 769.925 629.323 786.214C616.127 802.504 598.396 814.515 578.374 820.727C558.351 826.94 536.936 827.076 516.836 821.118C496.737 815.16 478.855 803.375 465.453 787.255C452.051 771.134 443.73 751.401 441.543 730.551C439.355 709.701 443.4 688.671 453.165 670.12C462.93 651.569 477.976 636.33 496.402 626.33L521.682 672.911C512.469 677.911 504.945 685.531 500.063 694.806C495.181 704.082 493.158 714.597 494.252 725.022C495.346 735.446 499.506 745.313 506.207 753.373C512.908 761.434 521.849 767.326 531.899 770.305C541.949 773.284 552.656 773.216 562.667 770.11C572.679 767.003 581.544 760.998 588.142 752.853C594.74 744.708 598.775 734.79 599.736 724.352C600.697 713.914 598.542 703.426 593.542 694.213L640.123 668.933Z" fill="#383B59"/>
<path d="M690.604 762.13C709.03 752.131 724.076 736.892 733.841 718.341C743.606 699.789 747.651 678.759 745.463 657.909C743.276 637.06 734.955 617.327 721.553 601.206C708.151 585.085 690.269 573.301 670.17 567.342C650.07 561.384 628.655 561.52 608.632 567.733C588.61 573.946 570.879 585.957 557.683 602.246C544.487 618.536 536.417 638.373 534.495 659.249C532.572 680.125 536.884 701.102 546.883 719.527L593.464 694.248C588.464 685.035 586.309 674.546 587.27 664.109C588.231 653.671 592.266 643.752 598.864 635.607C605.462 627.462 614.327 621.457 624.339 618.351C634.35 615.244 645.057 615.176 655.107 618.155C665.157 621.134 674.098 627.027 680.799 635.087C687.5 643.148 691.66 653.014 692.754 663.439C693.848 673.864 691.825 684.379 686.943 693.654C682.061 702.93 674.537 710.549 665.324 715.549L690.604 762.13Z" fill="#5661F6"/>
<path d="M868.123 1022.83C878.122 1041.26 882.434 1062.24 880.511 1083.11C878.589 1103.99 870.519 1123.83 857.323 1140.12C844.127 1156.41 826.396 1168.42 806.374 1174.63C786.351 1180.84 764.936 1180.98 744.836 1175.02C724.737 1169.06 706.855 1157.28 693.453 1141.16C680.051 1125.04 671.73 1105.3 669.543 1084.45C667.355 1063.6 671.4 1042.57 681.165 1024.02C690.93 1005.47 705.976 990.231 724.402 980.232L749.682 1026.81C740.469 1031.81 732.945 1039.43 728.063 1048.71C723.181 1057.98 721.158 1068.5 722.252 1078.92C723.346 1089.35 727.506 1099.21 734.207 1107.27C740.908 1115.34 749.849 1121.23 759.899 1124.21C769.949 1127.19 780.656 1127.12 790.667 1124.01C800.679 1120.9 809.544 1114.9 816.142 1106.75C822.74 1098.61 826.775 1088.69 827.736 1078.25C828.697 1067.82 826.542 1057.33 821.542 1048.11L868.123 1022.83Z" fill="#383B59"/>
<path d="M918.604 1116.03C937.03 1106.03 952.076 1090.79 961.841 1072.24C971.606 1053.69 975.651 1032.66 973.463 1011.81C971.276 990.961 962.955 971.228 949.553 955.107C936.151 938.987 918.269 927.202 898.17 921.244C878.07 915.286 856.655 915.422 836.632 921.634C816.61 927.847 798.879 939.858 785.683 956.148C772.487 972.437 764.417 992.274 762.495 1013.15C760.572 1034.03 764.884 1055 774.883 1073.43L821.464 1048.15C816.464 1038.94 814.309 1028.45 815.27 1018.01C816.231 1007.57 820.266 997.653 826.864 989.509C833.462 981.364 842.327 975.359 852.339 972.252C862.35 969.146 873.057 969.078 883.107 972.057C893.157 975.036 902.098 980.928 908.799 988.989C915.5 997.049 919.66 1006.92 920.754 1017.34C921.848 1027.77 919.825 1038.28 914.943 1047.56C910.061 1056.83 902.537 1064.45 893.324 1069.45L918.604 1116.03Z" fill="#5661F6"/>
<path d="M735.839 382.367C741.907 393.549 744.523 406.279 743.357 418.949C742.19 431.618 737.293 443.656 729.284 453.542C721.276 463.428 710.516 470.717 698.364 474.487C686.213 478.258 673.217 478.34 661.019 474.724C648.821 471.108 637.969 463.957 629.836 454.173C621.702 444.39 616.652 432.415 615.325 419.761C613.998 407.108 616.452 394.345 622.378 383.087C628.304 371.829 637.436 362.581 648.618 356.512L663.959 384.781C658.368 387.815 653.803 392.439 650.84 398.069C647.877 403.698 646.649 410.079 647.313 416.406C647.977 422.732 650.502 428.72 654.568 433.612C658.635 438.503 664.061 442.079 670.16 443.887C676.259 445.695 682.757 445.654 688.833 443.769C694.908 441.883 700.288 438.239 704.293 433.296C708.297 428.353 710.746 422.334 711.329 415.999C711.912 409.665 710.604 403.299 707.57 397.708L735.839 382.367Z" fill="#383B59"/>
<path d="M766.474 438.926C777.656 432.857 786.788 423.609 792.714 412.351C798.64 401.093 801.095 388.33 799.767 375.677C798.44 363.024 793.39 351.048 785.257 341.265C777.123 331.481 766.271 324.33 754.073 320.714C741.875 317.098 728.879 317.181 716.728 320.951C704.577 324.721 693.816 332.01 685.808 341.896C677.799 351.782 672.902 363.821 671.735 376.49C670.569 389.159 673.185 401.889 679.254 413.071L707.522 397.73C704.488 392.139 703.18 385.773 703.763 379.439C704.347 373.104 706.795 367.085 710.8 362.142C714.804 357.199 720.184 353.555 726.26 351.67C732.335 349.784 738.833 349.743 744.932 351.551C751.031 353.359 756.457 356.935 760.524 361.827C764.591 366.718 767.116 372.706 767.779 379.033C768.443 385.359 767.216 391.741 764.253 397.37C761.29 402.999 756.724 407.623 751.133 410.657L766.474 438.926Z" fill="#5661F6"/>
<path d="M963.839 736.268C969.907 747.45 972.523 760.181 971.357 772.85C970.19 785.519 965.293 797.558 957.284 807.443C949.276 817.329 938.516 824.618 926.364 828.389C914.213 832.159 901.217 832.241 889.019 828.626C876.821 825.01 865.969 817.858 857.836 808.075C849.702 798.291 844.652 786.316 843.325 773.663C841.998 761.009 844.452 748.247 850.378 736.988C856.304 725.73 865.436 716.482 876.618 710.414L891.959 738.682C886.368 741.717 881.803 746.341 878.84 751.97C875.877 757.599 874.649 763.98 875.313 770.307C875.977 776.634 878.502 782.621 882.568 787.513C886.635 792.405 892.061 795.981 898.16 797.788C904.259 799.596 910.757 799.555 916.833 797.67C922.908 795.785 928.288 792.14 932.293 787.197C936.297 782.254 938.746 776.235 939.329 769.901C939.912 763.566 938.604 757.201 935.57 751.61L963.839 736.268Z" fill="#383B59"/>
<path d="M994.474 792.827C1005.66 786.759 1014.79 777.511 1020.71 766.252C1026.64 754.994 1029.09 742.231 1027.77 729.578C1026.44 716.925 1021.39 704.95 1013.26 695.166C1005.12 685.383 994.271 678.231 982.073 674.615C969.875 670.999 956.879 671.082 944.728 674.852C932.577 678.623 921.816 685.912 913.808 695.797C905.799 705.683 900.902 717.722 899.735 730.391C898.569 743.06 901.185 755.791 907.254 766.973L935.522 751.631C932.488 746.04 931.18 739.675 931.763 733.34C932.347 727.006 934.795 720.986 938.8 716.044C942.804 711.101 948.184 707.456 954.26 705.571C960.335 703.686 966.833 703.645 972.932 705.452C979.031 707.26 984.457 710.836 988.524 715.728C992.591 720.62 995.116 726.607 995.779 732.934C996.443 739.261 995.216 745.642 992.253 751.271C989.29 756.9 984.724 761.524 979.133 764.558L994.474 792.827Z" fill="#5661F6"/>
<path d="M1351.84 1012.27C1357.91 1023.45 1360.52 1036.18 1359.36 1048.85C1358.19 1061.52 1353.29 1073.56 1345.28 1083.44C1337.28 1093.33 1326.52 1100.62 1314.36 1104.39C1302.21 1108.16 1289.22 1108.24 1277.02 1104.63C1264.82 1101.01 1253.97 1093.86 1245.84 1084.07C1237.7 1074.29 1232.65 1062.32 1231.33 1049.66C1230 1037.01 1232.45 1024.25 1238.38 1012.99C1244.3 1001.73 1253.44 992.482 1264.62 986.414L1279.96 1014.68C1274.37 1017.72 1269.8 1022.34 1266.84 1027.97C1263.88 1033.6 1262.65 1039.98 1263.31 1046.31C1263.98 1052.63 1266.5 1058.62 1270.57 1063.51C1274.63 1068.4 1280.06 1071.98 1286.16 1073.79C1292.26 1075.6 1298.76 1075.56 1304.83 1073.67C1310.91 1071.78 1316.29 1068.14 1320.29 1063.2C1324.3 1058.25 1326.75 1052.24 1327.33 1045.9C1327.91 1039.57 1326.6 1033.2 1323.57 1027.61L1351.84 1012.27Z" fill="#383B59"/>
<path d="M1382.47 1068.83C1393.66 1062.76 1402.79 1053.51 1408.71 1042.25C1414.64 1030.99 1417.09 1018.23 1415.77 1005.58C1414.44 992.925 1409.39 980.95 1401.26 971.166C1393.12 961.383 1382.27 954.231 1370.07 950.615C1357.88 946.999 1344.88 947.082 1332.73 950.852C1320.58 954.623 1309.82 961.912 1301.81 971.797C1293.8 981.683 1288.9 993.722 1287.74 1006.39C1286.57 1019.06 1289.19 1031.79 1295.25 1042.97L1323.52 1027.63C1320.49 1022.04 1319.18 1015.67 1319.76 1009.34C1320.35 1003.01 1322.8 996.986 1326.8 992.044C1330.8 987.101 1336.18 983.456 1342.26 981.571C1348.34 979.686 1354.83 979.645 1360.93 981.452C1367.03 983.26 1372.46 986.836 1376.52 991.728C1380.59 996.62 1383.12 1002.61 1383.78 1008.93C1384.44 1015.26 1383.22 1021.64 1380.25 1027.27C1377.29 1032.9 1372.72 1037.52 1367.13 1040.56L1382.47 1068.83Z" fill="#5661F6"/>
<path d="M1291.63 315.358C1301.63 333.784 1305.94 354.761 1304.02 375.637C1302.1 396.513 1294.03 416.35 1280.83 432.64C1267.64 448.929 1249.91 460.94 1229.88 467.153C1209.86 473.366 1188.45 473.501 1168.35 467.543C1148.25 461.585 1130.36 449.801 1116.96 433.68C1103.56 417.559 1095.24 397.826 1093.05 376.976C1090.87 356.127 1094.91 335.096 1104.67 316.545C1114.44 297.994 1129.49 282.755 1147.91 272.756L1173.19 319.337C1163.98 324.336 1156.46 331.956 1151.57 341.231C1146.69 350.507 1144.67 361.022 1145.76 371.447C1146.86 381.872 1151.02 391.738 1157.72 399.799C1164.42 407.859 1173.36 413.751 1183.41 416.73C1193.46 419.709 1204.17 419.641 1214.18 416.535C1224.19 413.429 1233.05 407.423 1239.65 399.279C1246.25 391.134 1250.28 381.215 1251.25 370.777C1252.21 360.339 1250.05 349.851 1245.05 340.638L1291.63 315.358Z" fill="#383B59"/>
<path d="M1342.11 408.555C1360.54 398.556 1375.59 383.317 1385.35 364.766C1395.12 346.215 1399.16 325.185 1396.97 304.335C1394.79 283.485 1386.46 263.752 1373.06 247.631C1359.66 231.51 1341.78 219.726 1321.68 213.768C1301.58 207.81 1280.16 207.946 1260.14 214.158C1240.12 220.371 1222.39 232.382 1209.19 248.671C1196 264.961 1187.93 284.798 1186 305.674C1184.08 326.55 1188.39 347.527 1198.39 365.953L1244.97 340.673C1239.97 331.46 1237.82 320.972 1238.78 310.534C1239.74 300.096 1243.78 290.177 1250.37 282.033C1256.97 273.888 1265.84 267.882 1275.85 264.776C1285.86 261.67 1296.57 261.602 1306.62 264.581C1316.67 267.56 1325.61 273.452 1332.31 281.512C1339.01 289.573 1343.17 299.439 1344.26 309.864C1345.36 320.289 1343.34 330.804 1338.45 340.08C1333.57 349.355 1326.05 356.975 1316.83 361.975L1342.11 408.555Z" fill="#5661F6"/>
<path d="M1519.63 669.26C1529.63 687.686 1533.94 708.663 1532.02 729.538C1530.1 750.414 1522.03 770.251 1508.83 786.541C1495.64 802.831 1477.91 814.841 1457.88 821.054C1437.86 827.267 1416.45 827.403 1396.35 821.445C1376.25 815.487 1358.36 803.702 1344.96 787.581C1331.56 771.46 1323.24 751.727 1321.05 730.878C1318.87 710.028 1322.91 688.998 1332.67 670.447C1342.44 651.896 1357.49 636.657 1375.91 626.657L1401.19 673.238C1391.98 678.238 1384.46 685.857 1379.57 695.133C1374.69 704.408 1372.67 714.923 1373.76 725.348C1374.86 735.773 1379.02 745.64 1385.72 753.7C1392.42 761.76 1401.36 767.653 1411.41 770.632C1421.46 773.611 1432.17 773.543 1442.18 770.436C1452.19 767.33 1461.05 761.325 1467.65 753.18C1474.25 745.035 1478.28 735.117 1479.25 724.679C1480.21 714.241 1478.05 703.752 1473.05 694.539L1519.63 669.26Z" fill="#383B59"/>
<path d="M1570.11 762.457C1588.54 752.457 1603.59 737.218 1613.35 718.667C1623.12 700.116 1627.16 679.086 1624.97 658.236C1622.79 637.386 1614.46 617.653 1601.06 601.533C1587.66 585.412 1569.78 573.627 1549.68 567.669C1529.58 561.711 1508.16 561.847 1488.14 568.06C1468.12 574.273 1450.39 586.283 1437.19 602.573C1424 618.862 1415.93 638.699 1414 659.575C1412.08 680.451 1416.39 701.428 1426.39 719.854L1472.97 694.575C1467.97 685.362 1465.82 674.873 1466.78 664.435C1467.74 653.997 1471.78 644.079 1478.37 635.934C1484.97 627.789 1493.84 621.784 1503.85 618.677C1513.86 615.571 1524.57 615.503 1534.62 618.482C1544.67 621.461 1553.61 627.353 1560.31 635.414C1567.01 643.474 1571.17 653.341 1572.26 663.766C1573.36 674.19 1571.34 684.706 1566.45 693.981C1561.57 703.257 1554.05 710.876 1544.83 715.876L1570.11 762.457Z" fill="#5661F6"/>
<path d="M1131.22 167.791C1137.29 178.973 1139.91 191.703 1138.74 204.372C1137.58 217.041 1132.68 229.08 1124.67 238.966C1116.66 248.852 1105.9 256.141 1093.75 259.911C1081.6 263.681 1068.6 263.764 1056.4 260.148C1044.21 256.532 1033.35 249.38 1025.22 239.597C1017.09 229.814 1012.04 217.838 1010.71 205.185C1009.38 192.532 1011.84 179.769 1017.76 168.511C1023.69 157.253 1032.82 148.005 1044 141.936L1059.34 170.205C1053.75 173.239 1049.19 177.863 1046.23 183.492C1043.26 189.121 1042.03 195.503 1042.7 201.829C1043.36 208.156 1045.89 214.144 1049.95 219.035C1054.02 223.927 1059.45 227.503 1065.55 229.311C1071.64 231.119 1078.14 231.078 1084.22 229.192C1090.29 227.307 1095.67 223.663 1099.68 218.72C1103.68 213.777 1106.13 207.758 1106.71 201.423C1107.3 195.089 1105.99 188.723 1102.96 183.132L1131.22 167.791Z" fill="#383B59"/>
<path d="M1161.86 224.35C1173.04 218.281 1182.17 209.033 1188.1 197.775C1194.03 186.517 1196.48 173.754 1195.15 161.101C1193.83 148.447 1188.78 136.472 1180.64 126.689C1172.51 116.905 1161.66 109.754 1149.46 106.138C1137.26 102.522 1124.26 102.604 1112.11 106.375C1099.96 110.145 1089.2 117.434 1081.19 127.32C1073.18 137.206 1068.29 149.244 1067.12 161.913C1065.95 174.582 1068.57 187.313 1074.64 198.495L1102.91 183.154C1099.87 177.563 1098.57 171.197 1099.15 164.863C1099.73 158.528 1102.18 152.509 1106.19 147.566C1110.19 142.623 1115.57 138.979 1121.65 137.093C1127.72 135.208 1134.22 135.167 1140.32 136.975C1146.42 138.783 1151.84 142.359 1155.91 147.25C1159.98 152.142 1162.5 158.13 1163.16 164.456C1163.83 170.783 1162.6 177.164 1159.64 182.793C1156.68 188.423 1152.11 193.047 1146.52 196.081L1161.86 224.35Z" fill="#5661F6"/>
<path d="M1359.22 521.693C1365.29 532.875 1367.91 545.605 1366.74 558.274C1365.58 570.943 1360.68 582.982 1352.67 592.868C1344.66 602.753 1333.9 610.042 1321.75 613.813C1309.6 617.583 1296.6 617.666 1284.4 614.05C1272.21 610.434 1261.35 603.282 1253.22 593.499C1245.09 583.716 1240.04 571.74 1238.71 559.087C1237.38 546.434 1239.84 533.671 1245.76 522.413C1251.69 511.155 1260.82 501.906 1272 495.838L1287.34 524.107C1281.75 527.141 1277.19 531.765 1274.23 537.394C1271.26 543.023 1270.03 549.405 1270.7 555.731C1271.36 562.058 1273.89 568.046 1277.95 572.937C1282.02 577.829 1287.45 581.405 1293.55 583.213C1299.64 585.021 1306.14 584.979 1312.22 583.094C1318.29 581.209 1323.67 577.565 1327.68 572.622C1331.68 567.679 1334.13 561.659 1334.71 555.325C1335.3 548.99 1333.99 542.625 1330.96 537.034L1359.22 521.693Z" fill="#383B59"/>
<path d="M1389.86 578.252C1401.04 572.183 1410.17 562.935 1416.1 551.677C1422.03 540.418 1424.48 527.656 1423.15 515.003C1421.83 502.349 1416.78 490.374 1408.64 480.59C1400.51 470.807 1389.66 463.655 1377.46 460.04C1365.26 456.424 1352.26 456.506 1340.11 460.277C1327.96 464.047 1317.2 471.336 1309.19 481.222C1301.18 491.108 1296.29 503.146 1295.12 515.815C1293.95 528.484 1296.57 541.215 1302.64 552.397L1330.91 537.055C1327.87 531.464 1326.57 525.099 1327.15 518.765C1327.73 512.43 1330.18 506.411 1334.19 501.468C1338.19 496.525 1343.57 492.88 1349.65 490.995C1355.72 489.11 1362.22 489.069 1368.32 490.877C1374.42 492.685 1379.84 496.261 1383.91 501.152C1387.98 506.044 1390.5 512.032 1391.16 518.358C1391.83 524.685 1390.6 531.066 1387.64 536.695C1384.68 542.324 1380.11 546.948 1374.52 549.983L1389.86 578.252Z" fill="#5661F6"/>
<path d="M1516.45 -45.1917C1522.52 -34.0096 1525.14 -21.2791 1523.97 -8.61005C1522.8 4.05902 1517.91 16.0976 1509.9 25.9834C1501.89 35.8692 1491.13 43.1582 1478.98 46.9286C1466.83 50.699 1453.83 50.7815 1441.63 47.1657C1429.44 43.5498 1418.58 36.398 1410.45 26.6147C1402.32 16.8314 1397.27 4.85593 1395.94 -7.79731C1394.61 -20.4505 1397.07 -33.2132 1402.99 -44.4715C1408.92 -55.7297 1418.05 -64.9778 1429.23 -71.0464L1444.57 -42.7775C1438.98 -39.7433 1434.42 -35.1192 1431.45 -29.4901C1428.49 -23.861 1427.26 -17.4796 1427.93 -11.153C1428.59 -4.82638 1431.12 1.16135 1435.18 6.05301C1439.25 10.9447 1444.68 14.5206 1450.77 16.3285C1456.87 18.1364 1463.37 18.0951 1469.45 16.2099C1475.52 14.3247 1480.9 10.6803 1484.91 5.73736C1488.91 0.794469 1491.36 -5.22484 1491.94 -11.5594C1492.53 -17.8939 1491.22 -24.2592 1488.18 -29.8502L1516.45 -45.1917Z" fill="#383B59"/>
<path d="M1547.09 11.3673C1558.27 5.29879 1567.4 -3.94934 1573.33 -15.2076C1579.25 -26.4658 1581.71 -39.2285 1580.38 -51.8817C1579.05 -64.535 1574 -76.5105 1565.87 -86.2938C1557.74 -96.0771 1546.89 -103.229 1534.69 -106.845C1522.49 -110.461 1509.49 -110.378 1497.34 -106.608C1485.19 -102.837 1474.43 -95.5483 1466.42 -85.6625C1458.41 -75.7767 1453.52 -63.7381 1452.35 -51.069C1451.18 -38.4 1453.8 -25.6695 1459.87 -14.4874L1488.14 -29.8289C1485.1 -35.4199 1483.79 -41.7852 1484.38 -48.1197C1484.96 -54.4542 1487.41 -60.4735 1491.41 -65.4164C1495.42 -70.3593 1500.8 -74.0038 1506.87 -75.889C1512.95 -77.7742 1519.45 -77.8155 1525.55 -76.0075C1531.65 -74.1996 1537.07 -70.6237 1541.14 -65.7321C1545.21 -60.8404 1547.73 -54.8527 1548.39 -48.5261C1549.06 -42.1994 1547.83 -35.8181 1544.87 -30.189C1541.9 -24.5599 1537.34 -19.9358 1531.75 -16.9015L1547.09 11.3673Z" fill="#5661F6"/>
</g>
<path d="M1149.52 533.245C1200.41 621.398 1224.03 722.663 1217.37 824.235C1210.71 925.807 1174.08 1023.12 1112.12 1103.88C1050.15 1184.63 965.631 1245.2 869.243 1277.92C772.855 1310.64 668.929 1314.04 570.608 1287.7C472.286 1261.35 383.985 1206.44 316.87 1129.91C249.756 1053.38 206.842 958.67 193.555 857.751C180.269 756.832 197.207 654.239 242.228 562.947C287.248 471.654 358.329 395.762 446.482 344.867L575.147 567.721C531.07 593.168 495.53 631.114 473.02 676.761C450.509 722.407 442.04 773.703 448.683 824.163C455.327 874.622 476.784 921.979 510.341 960.244C543.898 998.509 588.049 1025.96 637.21 1039.14C686.37 1052.31 738.333 1050.61 786.527 1034.25C834.721 1017.89 876.982 987.604 907.965 947.227C938.947 906.849 957.261 858.191 960.59 807.405C963.919 756.619 952.113 705.986 926.665 661.91L1149.52 533.245Z" fill="#383B59"/>
<path d="M1406.47 979.134C1494.63 928.239 1565.71 852.346 1610.73 761.054C1655.75 669.761 1672.69 567.169 1659.4 466.249C1646.11 365.33 1603.2 270.617 1536.09 194.088C1468.97 117.558 1380.67 62.6488 1282.35 36.3036C1184.03 9.95841 1080.1 13.3606 983.714 46.0799C887.326 78.7992 802.805 139.366 740.839 220.121C678.873 300.877 642.246 398.194 635.588 499.766C628.931 601.337 652.543 702.603 703.438 790.755L926.291 662.091C900.844 618.014 889.038 567.382 892.367 516.596C895.695 465.81 914.009 417.151 944.992 376.774C975.975 336.396 1018.24 306.113 1066.43 289.753C1114.62 273.393 1166.59 271.692 1215.75 284.865C1264.91 298.037 1309.06 325.492 1342.62 363.757C1376.17 402.022 1397.63 449.378 1404.27 499.838C1410.92 550.297 1402.45 601.594 1379.94 647.24C1357.43 692.886 1321.89 730.832 1277.81 756.28L1406.47 979.134Z" fill="#5661F6"/>
</svg>
