<svg width="99" height="79" viewBox="0 0 99 79" fill="none" xmlns="http://www.w3.org/2000/svg">
<path d="M34 39.4995V85.9995M34 39.4995H11.2646C8.37104 39.4995 6.92569 39.4995 5.82048 40.0626C4.8483 40.558 4.05848 41.3478 3.56313 42.32C3 43.4252 3 44.8731 3 47.7667V85.9995H34M34 39.4995V11.6C34 8.70639 34 7.25851 34.5631 6.1533C35.0585 5.18113 35.8483 4.3913 36.8205 3.89596C37.9257 3.33282 39.371 3.33282 42.2646 3.33282H56.7313C59.6249 3.33282 61.0748 3.33282 62.18 3.89596C63.1521 4.3913 63.9396 5.18113 64.4349 6.1533C64.998 7.25851 65 8.70639 65 11.6V23.9995M34 85.9995H65M65 85.9995L96 86V32.2667C96 29.3731 95.998 27.9252 95.4349 26.82C94.9395 25.8478 94.1552 25.058 93.183 24.5626C92.0778 23.9995 90.6269 23.9995 87.7333 23.9995H65M65 85.9995V23.9995" stroke="var(--white-static)" stroke-width="5" stroke-linecap="round" stroke-linejoin="round"/>
</svg>
