<svg width="106" height="82" viewBox="0 0 106 82" fill="none" xmlns="http://www.w3.org/2000/svg">
<path d="M3.47168 96.9988H41.8634M41.8634 96.9988H42.4907M41.8634 96.9988C41.9679 96.9996 42.0724 97 42.177 97C42.2817 97 42.3862 96.9996 42.4907 96.9988M41.8634 96.9988C20.6314 96.8302 3.47168 79.5639 3.47168 58.2921V35.7495C3.47168 32.9306 5.75557 30.6467 8.57444 30.6467H75.7772C78.596 30.6467 80.8824 32.9306 80.8824 35.7495V36.176M42.4907 96.9988H80.8824M42.4907 96.9988C63.7227 96.8302 80.8824 79.5639 80.8824 58.2921M80.8824 36.176H89.1764C96.8109 36.176 103 42.365 103 49.9994C103 57.6338 96.8109 63.8227 89.1764 63.8227H80.8824V58.2921M80.8824 36.176V58.2921M64.2944 3L58.7651 14.0587M47.7064 3L42.177 14.0587M31.1184 3L25.589 14.0587" stroke="var(--white)" stroke-width="5" stroke-linecap="round" stroke-linejoin="round"/>
</svg>
